<svg id="Capa_1" enable-background="new 0 0 512 512" height="512" viewBox="0 0 512 512" width="512" xmlns="http://www.w3.org/2000/svg"><g><g><path d="m372.1 512 3.9-105-120-30 7.904-37.904 67.096-37.096h33.3c66.301 0 120.7 47.399 131.499 112.8l16.201 97.2z" fill="#f03800"/><path d="m136 407 3.6 105h-139.6l16.201-97.2c10.8-65.401 65.199-112.8 131.499-112.8h33.3l64.273 34.273 10.727 40.727z" fill="#ff641a"/></g><path d="m331 302-75 75-75-75h9.901c7.8 0 14.7-4.801 17.999-11.4l47.1-18.6 47.1 18.3c.601 2.1 1.8 3.9 3.6 5.7 3.9 3.9 9 6 14.399 6z" fill="#fb9"/><path d="m331 302h-9.901c-5.4 0-10.499-2.1-14.399-6-1.8-1.8-2.999-3.6-3.6-5.7l-47.1-18.3v105z" fill="#f96"/><path d="m406 377-33.9 135h-232.5l-33.6-135z" fill="#fff5f5"/><path d="m256 512h116.1l33.9-135h-150z" fill="#efe2dd"/><g><path d="m241 422h30v30h-30z" fill="#fed843"/></g><path d="m256 422h15v30h-15z" fill="#fabe2c"/><g><g><g><g><path d="m151 120v77c0 40.199 23.101 76.5 57.9 93.6 12.293 6.62 29.073 11.4 47.1 11.4 17.414 0 33.36-4.301 47.1-11.7 35.099-17.1 57.9-53.101 57.9-93.3v-47c0-16.569-13.431-30-30-30z" fill="#ffd9b3"/></g></g></g></g><path d="m361 197v-47c0-16.569-13.431-30-30-30h-75v182c17.415 0 33.36-4.301 47.1-11.7 35.1-17.101 57.9-53.101 57.9-93.3z" fill="#fb9"/><g><path d="m361 150h-195c-41.367 0-75-33.647-75-75s33.633-75 75-75h15v15c0 8.276 6.738 15 15 15h90c41.367 0 75 33.647 75 75z" fill="#fabe2c"/></g><path d="m256 150h105v-45c0-41.353-33.633-75-75-75h-30z" fill="#ff9100"/></g></svg>