<svg id="Capa_1" enable-background="new 0 0 512 512" height="512" viewBox="0 0 512 512" width="512" xmlns="http://www.w3.org/2000/svg"><g><g><path d="m61 467h30v45h-30z" fill="#efe2dd"/></g><g><g><g><path d="m421 467h30v45h-30z" fill="#e1d3ce"/></g></g></g><g><g><g><g><path d="m211 271h-90v-90h90z" fill="#efe2dd"/></g></g></g></g><path d="m166 181h45v90h-45z" fill="#e1d3ce"/><g><path d="m301 211h-270v-211h270z" fill="#5c6366"/></g><path d="m166 0h135v211h-135z" fill="#41474d"/><g><path d="m481 482h-450v-226h450z" fill="#fed843"/></g><g><g><path d="m481 181-60 21-60-21c-16.569 0-30-13.431-30-30 0-16.569 13.431-30 30-30h120z" fill="#57d9ad"/></g></g><path d="m481 241-68 18-52-18c-16.569 0-30-13.431-30-30 0-16.569 13.431-30 30-30h120z" fill="#f03800"/><path d="m256 256h225v226h-225z" fill="#fabe2c"/><g id="Desk_2_"><g><path d="m151 91h30v30h-30z" fill="#fff5f5"/></g></g><path d="m166 91h15v30h-15z" fill="#efe2dd"/><path d="m0 241h512v30h-512z" fill="#fabe2c"/><path d="m256 241h256v30h-256z" fill="#ff9100"/></g></svg>