<svg id="Capa_1" enable-background="new 0 0 512 512" height="512" viewBox="0 0 512 512" width="512" xmlns="http://www.w3.org/2000/svg"><g><g><g><path d="m286 0v30c-8.401 0-15 6.599-15 15v32h-30v-32c0-13.2 5.7-25.201 15-33.3 7.8-7.201 18.3-11.7 30-11.7z" fill="#5c6366"/></g><path d="m286 0v30c-8.401 0-15 6.599-15 15v32h-15v-65.3c7.8-7.201 18.3-11.7 30-11.7z" fill="#41474d"/><g><path d="m291.801 272h-71.602c-29.971 0-55.986-20.303-63.281-49.38-.176 0-20.918-49.892-20.918-85.62 0-41.353 33.633-75 75-75h90c41.367 0 75 33.647 75 75 0 35.742-20.771 85.664-21.65 87.773-6.563 26.924-32.579 47.227-62.549 47.227z" fill="#ff641a"/></g><path d="m256 272h35.801c29.971 0 55.986-20.303 62.549-47.227.879-2.109 21.65-52.031 21.65-87.773 0-41.353-33.633-75-75-75h-45z" fill="#f03800"/></g><path d="m512 332c0 33.14-26.86 60-60 60h-452v-15c19.59 0 36.26-12.52 42.43-30l49.57-15-49.57-15c-6.17-17.48-22.84-30-42.43-30v-15h452c16.57 0 31.57 6.72 42.43 17.57 10.85 10.86 17.57 25.86 17.57 42.43z" fill="#fabe2c"/><path d="m43.53 343.42c.32-1.22.59-2.46.81-3.71-.22 1.26-.49 2.5-.81 3.71z" fill="#fff5f5"/><path d="m43.53 320.58c.32 1.21.59 2.45.81 3.71-.22-1.25-.49-2.49-.81-3.71z" fill="#fff5f5"/><path d="m0 452c0 33.14 26.86 60 60 60h452v-15c-19.59 0-36.26-12.52-42.43-30l-49.57-15 49.57-15c6.17-17.48 22.84-30 42.43-30v-15h-452c-16.57 0-31.57 6.72-42.43 17.57-10.85 10.86-17.57 25.86-17.57 42.43z" fill="#ff641a"/><path d="m512 512v-15c-19.59 0-36.26-12.52-42.43-30l-49.57-15 49.57-15c6.17-17.48 22.84-30 42.43-30v-15h-256v120z" fill="#f03800"/><path d="m512 332c0-16.57-6.72-31.57-17.57-42.43-10.86-10.85-25.86-17.57-42.43-17.57h-196v120h196c33.14 0 60-26.86 60-60z" fill="#ff9100"/><path d="m60 437v30h409.57c-4.594-12.684-2.04-24.368 0-30z" fill="#fff5f5"/><path d="m469.57 467c-4.594-12.684-2.04-24.368 0-30h-213.57v30z" fill="#efe2dd"/><path d="m452 317v30h-409.57c4.594-12.684 2.04-24.368 0-30z" fill="#fff5f5"/><path d="m256 317h196v30h-196z" fill="#efe2dd"/></g></svg>