<svg id="Capa_1" enable-background="new 0 0 512 512" height="512" viewBox="0 0 512 512" width="512" xmlns="http://www.w3.org/2000/svg"><g><path d="m331 375v62l-74.93 30-75.07-30v-62l75-30z" fill="#fff5f5"/><path d="m256.07 467 74.93-30v-62l-75-30v121.973z" fill="#efe2dd"/><path d="m421 165c0 45-18.9 88.799-51.899 120-24.601 23.099-38.101 51.599-38.101 80.7v9.3h-150v-8.101c0-30.899-12.001-59.099-32.701-77.1-44.099-38.099-64.799-95.7-54.598-153.9 10.8-65.4 61.8-118.5 126.899-132.299 11.999-2.401 23.7-3.6 35.4-3.6 78.6 0 146.1 55.8 161.7 131.4 2.101 11.1 3.3 22.5 3.3 33.6z" fill="#fed843"/><path d="m421 165c0 45-18.9 88.799-51.899 120-24.601 23.099-38.101 51.599-38.101 80.7v9.3h-75v-375c78.6 0 146.1 55.8 161.7 131.4 2.101 11.1 3.3 22.5 3.3 33.6z" fill="#fabe2c"/><g><path d="m331 437c0 41.4-33.6 75-75 75-40.306 0-75-32.423-75-75z" fill="#efe2dd"/></g><g id="Creativity_1_"><g><path d="m241 90h30v150h-30z" fill="#ff641a"/></g><g><path d="m241 270h30v30h-30z" fill="#ff641a"/></g><g><path d="m31.002 2.574h29.997v84.853h-29.997z" fill="#fed843" transform="matrix(.707 -.707 .707 .707 -18.347 45.707)"/></g><g><path d="m3.574 270.002h84.853v29.997h-84.853z" fill="#fed843" transform="matrix(.707 -.707 .707 .707 -188.052 116.002)"/></g><g><path d="m423.574 30.002h84.853v29.997h-84.853z" fill="#fabe2c" transform="matrix(.707 -.707 .707 .707 104.668 342.692)"/></g><g><path d="m451.002 242.574h29.997v84.853h-29.997z" fill="#fabe2c" transform="matrix(.707 -.707 .707 .707 -65.037 412.986)"/></g></g><path d="m331 437h-75v75c41.4 0 75-33.6 75-75z" fill="#e1d3ce"/><g fill="#f03800"><path d="m256 270h15v30h-15z"/><path d="m256 90h15v150h-15z"/></g></g></svg>