<svg id="Capa_1" enable-background="new 0 0 512 512" height="512" viewBox="0 0 512 512" width="512" xmlns="http://www.w3.org/2000/svg"><g><g><path d="m370.258 481h-228.516l45-90h138.516z" fill="#efe2dd"/></g><path d="m256 391v90h114.258l-45-90z" fill="#e1d3ce"/><g><path d="m512 421h-512v-300h121v180h270v-180h121z" fill="#5c6366"/></g><path d="m512 121h-121v180h-135v120h256z" fill="#41474d"/><g id="E_Learning_1_"><g><path d="m286 316-30 15h-165v-75l105-30z" fill="#efe2dd"/><path d="m421 256v75h-165v-15c0-33.001 27.001-90 60-90z" fill="#e1d3ce"/></g></g><path d="m256 31 30 142.5-30 134.353v8.147c0-33.001-27.001-60-60-60h-105v-225z" fill="#fff5f5"/><path d="m421 31v225h-105c-32.999 0-60 26.999-60 60v-285z" fill="#efe2dd"/></g></svg>