<svg id="Capa_1" enable-background="new 0 0 512 512" height="512" viewBox="0 0 512 512" width="512" xmlns="http://www.w3.org/2000/svg"><g><g><path d="m0 340.272v-340.272h391v301h-312.455z" fill="#57d9ad"/></g><path d="m196 0h195v301h-195z" fill="#26bfa6"/><g><path d="m512 512-78.545-31h-252.455v-210h331z" fill="#fff5f5"/></g><path d="m346 481h87.455l78.545 31v-241h-166z" fill="#efe2dd"/><g id="Question_and_Answer_2_"><g><path d="m241 331h211v30h-211z" fill="#5c6366"/></g><g><path d="m241 391h211v30h-211z" fill="#5c6366"/></g><g><path d="m211 181h-30v-32.563c0-12.671 8.027-24.038 19.98-28.286 6.006-2.124 10.02-7.808 10.02-14.15 0-8.276-6.738-15-15-15s-15 6.724-15 15h-30c0-24.814 20.186-45 45-45s45 20.186 45 45c0 19.043-12.07 36.094-30.029 42.437z" fill="#fff5f5"/></g><g><path d="m181 211h30v30h-30z" fill="#fff5f5"/></g></g><path d="m346 391h106v30h-106z" fill="#41474d"/><path d="m346 331h106v30h-106z" fill="#41474d"/><g fill="#efe2dd"><path d="m196 211h15v30h-15z"/><path d="m211 106c0 6.343-4.014 12.026-10.02 14.15-1.824.648-3.354 1.745-4.98 2.703v58.147h15l-.029-32.563c17.959-6.343 30.029-23.394 30.029-42.437 0-24.814-20.186-45-45-45v30c8.262 0 15 6.724 15 15z"/></g></g></svg>