<svg id="Capa_1" enable-background="new 0 0 512 512" height="512" viewBox="0 0 512 512" width="512" xmlns="http://www.w3.org/2000/svg"><g><g><path d="m255.997 512c-107.52 0-195-67.295-195-150 0-85.825 69.434-210 195-210s195 124.175 195 210c0 82.705-87.481 150-195 150z" fill="#5c6366"/></g><path d="m450.997 362c0-85.825-69.434-210-195-210v360c107.519 0 195-67.295 195-150z" fill="#41474d"/><g id="Veterinary_2_"><g><path d="m300.997 452h-90v-60h-60v-90h60v-60h90v60h60v90h-60z" fill="#ff641a"/></g><g><g><path d="m17.696 142.27c-21.729-25.761-19.174-63.416 7.471-80.479 26.017-16.787 60.998-4.211 76.143 26.47 14.297 28.975 9.463 60.981-11.25 74.458-22.336 14.241-53.544 1.873-72.364-20.449z" fill="#5c6366"/></g><g><path d="m138.282 72.467c-10.046-32.147 6.12-65.508 36.914-71.499 31.051-6.362 58.395 19.99 60.908 52.822 2.432 31.919-13.857 59.839-37.939 64.951-21.696 4.234-49.124-11.855-59.883-46.274z" fill="#5c6366"/></g><g><path d="m314.092 118.785c-24.346-5.156-40.664-33.091-38.174-65.01 2.473-32.996 30.122-59.293 61.025-52.778 30.369 5.907 46.891 39.046 36.768 71.47-10.849 34.743-38.324 50.525-59.619 46.318z" fill="#41474d"/></g><g><path d="m422.051 162.807c-20.83-13.564-25.664-45.571-11.367-74.546 14.96-30.307 49.755-43.442 76.201-26.44 26.3 16.86 29.376 54.381 7.412 80.449-18.134 21.484-49.469 35.035-72.246 20.537z" fill="#41474d"/></g></g></g><path d="m255.997 242v210h45v-60h60v-90h-60v-60z" fill="#f03800"/></g></svg>