<svg id="Capa_1" enable-background="new 0 0 512 512" height="512" viewBox="0 0 512 512" width="512" xmlns="http://www.w3.org/2000/svg"><g><path d="m387.44 51.808 5.17-25.041-29.355-6.065-5.151 24.946-38.472 37.867-38.525 187.485h91.816l34.892-169.131z" fill="#5c6366"/><path d="m372.923 271 34.892-169.131-20.375-50.061 5.17-25.041-14.677-3.033-50.918 247.266z" fill="#41474d"/><path d="m197.2 75v196h90v-196l-45-30z" fill="#57d9ad"/><path d="m287.2 271v-196l-45-30v226z" fill="#26bfa6"/><g><path d="m163.3 3.699-118.5 20.101 10.201 59.099 31.684 4.999-26.885 24.701 5.101 29.401 31.649 4.8-26.549 24.6 5.099 29.7 31.388 4.252-26.587 25.448 6.899 40.2h121.5z" fill="#fed843"/></g><path d="m163.3 3.699-59.249 10.051 43.5 257.25h60.749z" fill="#fabe2c"/><g id="Stationery_2_"><g><path d="m287.2 45v30h-90v-30c0-24.901 20.099-45 45-45s45 20.099 45 45z" fill="#fed843"/></g><g><g><path d="m119.201 102.4-59.401 10.199-4.799-29.7 59.099-9.9z" fill="#5c6366"/></g><g><path d="m129.1 161.499-59.099 9.901-5.1-29.4 59.099-9.9z" fill="#5c6366"/></g><g><path d="m139 220.899-59.099 9.9-4.801-29.399v-.301l59.101-9.9z" fill="#5c6366"/></g></g><g><g><g><g><path d="m99.7 436 9.3 76h208.2v-76l-90-30z" fill="#efe2dd"/></g></g></g></g></g><path d="m317.2 512v-76l-90-30v106z" fill="#e1d3ce"/><path d="m287.2 75v-30c0-24.901-20.099-45-45-45v75z" fill="#fabe2c"/><path d="m379.3 241-22.8 180h-39.3v15h-217.5l-24.6-195z" fill="#fff5f5"/><path d="m227.2 436h90v-15h39.3l22.8-180h-152.1z" fill="#efe2dd"/><g><g><g><g><path d="m467.2 512h-60c-16.569 0-30-14.431-30-31v-60c0-16.569 13.431-30 30-30h60z" fill="#efe2dd"/></g></g></g></g><g><path d="m407.2 512h-120v-121h120z" fill="#f03800"/></g></g></svg>