<svg id="Capa_1" enable-background="new 0 0 510.5 510.5" height="512" viewBox="0 0 510.5 510.5" width="512" xmlns="http://www.w3.org/2000/svg"><g><g><g><g><g><g><path d="m270.265 361.352v-122.432c3.004-2.714 30-11.728 30-42.92 0-24.814-20.186-45-45-45s-45 20.186-45 45c0 29.273 26.754 39.988 30 42.92v122.432c-9.206-2.997-55.958-4.463-99.346-47.402l-32.139 18.706-45.029-78.326 32.08-18.311c-3.75-13.813-5.566-26.997-5.566-40.02 0-13.33 1.787-26.821 5.273-40.254l-31.816-18.032 45.029-78.325 31.934 18.457c20.01-19.395 43.711-33.223 69.58-40.605v-37.24h90v37.226c26.016 7.427 49.658 21.328 69.346 40.825l32.139-18.706 45.029 78.325-32.08 18.311c3.75 13.813 5.566 26.997 5.566 40.02s-1.816 26.206-5.566 40.02l32.08 18.311-45.029 78.325-32.139-18.706c-43.245 42.796-89.282 44.124-99.346 47.401z" fill="#57d9ad"/></g></g></g></g><path d="m401.749 59.345-32.139 18.706c-19.688-19.497-43.33-33.398-69.346-40.825v-37.226h-45.014v151.002c.005 0 .009-.002.015-.002 24.814 0 45 20.186 45 45 0 31.192-26.995 40.206-30 42.92v122.432c10.065-3.278 56.1-4.605 99.346-47.402l32.139 18.706 45.029-78.325-32.08-18.311c3.75-13.813 5.566-26.997 5.566-40.02s-1.816-26.206-5.566-40.02l32.08-18.311z" fill="#26bfa6"/></g><path d="m300.265 377.3v-121.6c18.6-14.101 30-36.301 30-59.7 0-36.301-25.8-66.601-60-73.5v73.5h-30v-73.5c-34.2 6.899-60 37.2-60 73.5 0 23.399 11.4 45.599 30 59.7v121.6c-18.6 13.799-30 35.999-30 59.7 0 36.299 25.8 66.599 60 73.5v-73.5h30v73.5c34.2-6.901 60-37.202 60-73.5 0-23.701-11.4-45.901-30-59.7z" fill="#fff5f5"/><path d="m300.265 377.3v-121.6c18.6-14.101 30-36.301 30-59.7 0-36.301-25.8-66.601-60-73.5v73.5h-15.015v241h15.015v73.5c34.2-6.901 60-37.202 60-73.5 0-23.701-11.4-45.901-30-59.7z" fill="#e1d3ce"/></g></svg>