<svg id="Capa_1" enable-background="new 0 0 512 512" height="512" viewBox="0 0 512 512" width="512" xmlns="http://www.w3.org/2000/svg"><g><path d="m307 347h-90l-75 45 30 60h180l30-60z" fill="#fed843"/><path d="m262 347v105h90l30-60-75-45z" fill="#fabe2c"/><g><g><path d="m457 62v15c0 32.999-25.499 62.1-70.8 81.599 20.4 28.801 25.8 44.101 31.8 64.801l6.599 22.5c-15.159-2.265-23.395-3.9-27.599-3.9-16.5 0-30 13.5-30 30v180h-15v-30c0-24.901-20.099-45-45-45s-45 20.099-45 45c0-24.901-20.099-45-45-45s-45 20.099-45 45v30h-15v-180c0-16.5-13.5-30-30-30-4.163 0-12.353 1.622-27.599 3.9l6.599-22.5c7.2-23.701 18.001-45.901 32.1-64.801-45-19.499-71.1-48.9-71.1-81.599v-15h15c40.499 0 59.7-14.601 81.599-29.601 22.801-15 48.901-32.399 98.401-32.399s75.601 17.399 98.401 32.399c21.9 15 41.1 29.601 81.599 29.601z" fill="#c86e59"/></g></g><path d="m307 377c24.901 0 45 20.099 45 45v30h15v-180c0-16.5 13.5-30 30-30 4.204 0 12.44 1.635 27.599 3.9l-6.599-22.5c-6-20.7-11.4-36-31.8-64.801 45.301-19.499 70.8-48.6 70.8-81.599v-15h-15c-40.499 0-59.7-14.601-81.599-29.601-22.8-15-48.9-32.399-98.401-32.399v422c0-24.901 20.1-45 45-45z" fill="#a34f3e"/><g id="Owl_Education_2_"><g><path d="m187 473.196-62.52-62.49c-36.532-36.533-57.48-87.085-57.48-138.706 0-33.039 26.916-60 60-60 33.076 0 60 26.909 60 60z" fill="#5c6366"/></g><g><path d="m337 473.196v-201.196c0-33.091 26.924-60 60-60 33.55 0 60 27.375 60 60 0 51.621-20.947 102.173-57.48 138.706z" fill="#41474d"/></g><g><path d="m202 182c-24.814 0-45-20.186-45-45v-15c0-16.538 13.447-30 30-30h15c24.814 0 45 20.186 45 45s-20.185 45-45 45z" fill="#fff5f5"/><path d="m200.921 151.962c-7.92-.557-13.921-7.429-13.921-15.369 0-8.06 6.534-14.593 14.593-14.593 7.939 0 14.811 6.001 15.369 13.921.642 9.119-6.922 16.682-16.041 16.041z" fill="#5c6366"/></g><g><path d="m322 182c-24.814 0-45-20.186-45-45s20.186-45 45-45h15c16.553 0 30 13.462 30 30v15c0 24.814-20.185 45-45 45z" fill="#efe2dd"/><path d="m323.079 151.962c-9.119.641-16.683-6.922-16.041-16.041.557-7.92 7.429-13.921 15.369-13.921 8.06 0 14.593 6.534 14.593 14.593 0 7.94-6.001 14.812-13.921 15.369z" fill="#41474d"/></g></g><g><path d="m262 299.044-48.252-75.003 48.252-48.252 48.252 48.252z" fill="#fed843"/></g><path d="m310.252 224.041-48.252-48.252v123.255z" fill="#fabe2c"/><g><path d="m397 422 30 45-30 45h-255l-30-45 30-45z" fill="#57d9ad"/></g><path d="m262 422v90h135l30-45-30-45z" fill="#26bfa6"/><path d="m427 422h-30v90h30c24.901 0 45-20.101 45-45 0-24.901-20.099-45-45-45z" fill="#ff9100"/><path d="m142 422v90h-34.5l-67.5-45 67.5-45z" fill="#5c6366"/></g></svg>