<svg id="Capa_1" enable-background="new 0 0 512 512" height="512" viewBox="0 0 512 512" width="512" xmlns="http://www.w3.org/2000/svg"><g><g><path d="m422 180c-49.629 0-90-40.371-90-90s40.371-90 90-90 90 40.371 90 90-40.371 90-90 90z" fill="#fed843"/></g><path d="m512 90c0-49.629-40.371-90-90-90v180c49.629 0 90-40.371 90-90z" fill="#fabe2c"/><g><g><g><path d="m422 512h-422v-272h362v30h60z" fill="#57d9ad"/></g></g></g><path d="m362 240h-150v272h210v-242h-60z" fill="#26bfa6"/><g><path d="m332 450h-240v-15c0-8.276-6.738-15-15-15h-15v-90h15c8.262 0 15-6.724 15-15v-15h240v15c0 8.276 6.738 15 15 15h15v90h-15c-8.262 0-15 6.724-15 15z" fill="#26bfa6"/></g><path d="m332 315v-15h-120v150h120v-15c0-8.276 6.738-15 15-15h15v-90h-15c-8.262 0-15-6.724-15-15z" fill="#0f9983"/><g id="Economy_2_"><g><path d="m512 225v75h-180v-75l90-30z" fill="#fed843"/></g><g><path d="m167 360h90v30h-90z" fill="#57d9ad"/></g><g><path d="m407 75h30v30h-30z" fill="#fabe2c"/></g></g><path d="m512 300v-75l-90-30v105z" fill="#fabe2c"/><path d="m422 75h15v30h-15z" fill="#ff9100"/><path d="m212 360h45v30h-45z" fill="#26bfa6"/><path d="m332 150h180v75h-180z" fill="#fabe2c"/><path d="m422 150h90v75h-90z" fill="#ff9100"/></g></svg>