<svg id="Capa_1" enable-background="new 0 0 516.599 516.599" height="512" viewBox="0 0 516.599 516.599" width="512" xmlns="http://www.w3.org/2000/svg"><g><g id="Professor_2_"><g><g><path d="m348.3 333.3-90 105-90-105h24.9c11.4 0 20.099-8.701 20.099-20.101v-20.999c15 4.799 25.201 10.499 40.8 11.1h4.2c18.9.3 30-6.901 45-11.4v21.299c0 11.4 8.699 20.101 20.099 20.101z" fill="#fb9"/></g></g></g><path d="m348.3 333.3-90 105v-135c18.9.3 30-6.901 45-11.4v21.299c0 11.4 8.699 20.101 20.099 20.101z" fill="#f96"/><g><path d="m348.3 153.3h-15v-15c0-41.353-33.633-75-75-75-41.647 0-75 33.941-75 75v15h-15c-41.367 0-75-33.647-75-75s33.633-75 75-75h180c41.367 0 75 33.647 75 75s-33.633 75-75 75z" fill="#fff5f5"/></g><path d="m333.3 138.3v15h15c41.367 0 75-33.647 75-75s-33.633-75-75-75h-90v60c41.367 0 75 33.647 75 75z" fill="#efe2dd"/><path d="m383.099 333.898-4.799 134.402-120-90 90-45h21.599c4.5 0 8.701.3 13.2.598z" fill="#26bfa6"/><path d="m258.3 378.3-120 90-4.8-134.402c4.499-.298 8.699-.599 13.2-.599h21.6z" fill="#57d9ad"/><g><g><path d="m258.124 333.417c-45.484 0-82.365-30.407-97.529-69.712-4.951-14.136-7.295-27.246-7.295-40.503v-84.902c0-57.925 47.042-105 105-105 57.891 0 105 47.109 105 105v90c0 58.136-47.168 105.117-105.176 105.117z" fill="#ffd9b3"/></g></g><path d="m363.3 228.3v-90c0-57.891-47.109-105-105-105v300.099c57.925-.099 105-47.024 105-105.099z" fill="#fb9"/><path d="m516.599 513.3h-516.599l14.399-71.4c11.701-58.801 60.601-102.302 119.101-108.002l34.8 104.402 90-60 90 60 34.799-104.401c58.5 5.7 107.401 49.2 119.101 108.001z" fill="#5c6366"/><path d="m516.599 513.3-14.399-71.4c-11.7-58.801-60.601-102.301-119.101-108.001l-34.799 104.401-90-60v135z" fill="#41474d"/></g></svg>