<svg id="Capa_1" enable-background="new 0 0 512 512" height="512" viewBox="0 0 512 512" width="512" xmlns="http://www.w3.org/2000/svg"><g><path d="m91 165v53.399c0 54.3 25.201 105.901 67.5 138.6l3.9 3.001h28.5c19.664 0 37.597-11.059 46.8-31.5 5.7.899 11.999 1.5 18.3 1.5l30-149.941-30-180.059c-90.901 0-165 74.099-165 165z" fill="#fabe2c"/><g><path d="m421 165v60c0 51.599-24.6 100.8-66 131.999l-3.9 3.001h-30c-21 0-39-13.2-46.5-31.8-6 1.199-12.299 1.8-18.6 1.8v-330c90.901 0 165 74.099 165 165z" fill="#ff9100"/></g><path d="m326.499 330-70.499 167-70.499-167h5.4c10.6 0 20.099-8.289 20.099-20.101l-.3-22.5 20.7 8.101c15 6 34.2 6 49.2 0l20.4-7.8v21.9c0 11.1 9 20.4 20.099 20.4z" fill="#fb9"/><path d="m326.499 330h-5.4c-11.099 0-20.099-9.3-20.099-20.4v-21.901l-20.4 7.8c-7.5 3-16.051 4.501-24.6 4.501v197z" fill="#f96"/><g><path d="m256 435 30 39.356-30 37.644h-228.3l19.2-97.7c9.9-48.9 53.1-84.3 102.901-84.3h35.7z" fill="#ff641a"/></g><path d="m484.3 512h-228.3v-77l70.499-105h35.7c49.801 0 93.001 35.4 102.9 84.3z" fill="#f03800"/><g id="Teacher_1_"><g><g><g><g><path d="m256 330c-57.107 0-105-45.924-105-105v-105h15c41.518 0 75-33.795 75-75h30c0 41.353 33.633 75 75 75h15v105c0 58.889-47.958 105-105 105z" fill="#ffd9b3"/></g></g></g></g></g><path d="m361 225v-105h-15c-41.367 0-75-33.647-75-75h-15v285c57.043 0 105-46.111 105-105z" fill="#fb9"/></g></svg>