<svg id="Capa_1" enable-background="new 0 0 512 512" height="512" viewBox="0 0 512 512" width="512" xmlns="http://www.w3.org/2000/svg"><g><g><path d="m512 256c0 70.199-29.5 134.099-75.7 180.3l-236.7-146.7 56.4-289.6c140.7 0 256 115.3 256 256z" fill="#873f2e"/><path d="m436.3 436.3c-20.4 20.4-44.399 37.5-70.8 49.799l-337.8-116.7c-17.1-34.199-27.7-72.599-27.7-113.399 0-21.301 3.701-42.301 8.8-62.1l142.2-87.9 105 79.799v70.201l42.299 42.299 42.601 42.599 42.3 42.302z" fill="#bcf7fc"/><path d="m256 448.27 109.501 37.83c26.4-12.299 50.4-29.399 70.8-49.799l-53.101-53.101-42.299-42.301-42.601-42.599-42.3-42.3z" fill="#9df"/><path d="m436 256c0 49.499-20.099 94.499-52.8 127.2l-42.299-42.301-84.901-204.899v-60c99.3 0 180 80.7 180 180z" fill="#fed843"/><g id="Geology_1_"><g><path d="m376 256c0 32.999-13.5 62.999-35.099 84.899l-42.601-42.599-42.3-102.3v-60c66.301 0 120 53.699 120 120z" fill="#ff9100"/></g></g><g><g><g><path d="m256 0v185.799c-7.8 6.301-15.601 10.201-22.5 10.201-43.801 0-38.699-60-82.5-60s-38.699 90-82.5 90c-22.8 0-44.399-16.5-59.7-32.1 27.6-110.7 127.801-193.9 247.2-193.9z" fill="#57d9ad"/></g></g></g><path d="m316 256c0 16.5-6.599 31.5-17.701 42.299l-42.299-42.299v-60c32.999 0 60 26.999 60 60z" fill="#f03800"/></g><path d="m365.501 486.099c-33.302 15.901-70.501 25.901-109.501 25.901-99.901 0-186.599-58.601-228.3-142.601 16.8-8.699 48-23.399 70.8-23.399 32.1 0 65.4 45 97.5 45s45-15 82.5-15c34.799 0 78.3 65.7 87.001 110.099z" fill="#57d9ad"/><path d="m278.5 376c-8.665 0-15.921.853-22.5 2.086v133.914c39 0 76.199-10 109.501-25.901-8.701-44.399-52.202-110.099-87.001-110.099z" fill="#26bfa6"/></g></svg>