<svg id="Capa_1" enable-background="new 0 0 512 512" height="512" viewBox="0 0 512 512" width="512" xmlns="http://www.w3.org/2000/svg"><g><g id="Law_And_Justice_1_"><g><path d="m222.543 73.173-127.797 50.786-92.607 154.321 25.722 15.44 77.132-128.575 77.146 128.575 25.722-15.44-80.945-134.908 106.76-42.338z" fill="#fabe2c"/><path d="m509.861 278.28-92.607-154.321-127.797-50.786-11.133 27.861 106.76 42.338-80.945 134.908 25.722 15.44 77.146-128.575 77.132 128.575z" fill="#ff9100"/></g><g><path d="m241 0h30v46h-30z" fill="#fabe2c"/></g><g><path d="m241 106h30v331h-30z" fill="#fabe2c"/></g></g><g><path d="m105 391c-57.949 0-105-63.53-105-105v-15h210v15c0 41.47-47.051 105-105 105z" fill="#fed843"/></g><g><g><path d="m407 391c-57.949 0-105-63.53-105-105v-15h210v15c0 41.47-47.051 105-105 105z" fill="#fabe2c"/></g></g><path d="m256 106h15v331h-15z" fill="#ff9100"/><path d="m256 0h15v46h-15z" fill="#ff9100"/><g><path d="m256 121c-24.814 0-45-20.186-45-45s20.186-45 45-45 45 20.186 45 45-20.186 45-45 45z" fill="#fed843"/></g><path d="m301 76c0-24.814-20.186-45-45-45v90c24.814 0 45-20.186 45-45z" fill="#fabe2c"/><g><path d="m370.258 512h-228.516l45-90h138.516z" fill="#fed843"/></g><path d="m256 512h114.258l-45-90h-69.258z" fill="#fabe2c"/></g></svg>