<svg id="Capa_1" enable-background="new 0 0 512 512" height="512" viewBox="0 0 512 512" width="512" xmlns="http://www.w3.org/2000/svg"><g><path d="m15 242.5v-90c0-16.542 13.458-30 30-30h362c33.084 0 60 26.916 60 60v60z" fill="#fff5f5"/><path d="m256 242.5h211v-60c0-33.084-26.916-60-60-60h-151z" fill="#efe2dd"/><path d="m407 107.5h-362c-24.813 0-45 20.187-45 45v105h482v-75c0-41.355-33.645-75-75-75zm-136 30h91v105h-91zm-30 105h-91v-105h91zm-211-90c0-8.271 6.729-15 15-15h75v105h-90zm422 90h-60v-105h15c24.813 0 45 20.187 45 45z" fill="#fabe2c"/><path d="m482 182.5c0-41.355-33.645-75-75-75h-151v150h226zm-120 60h-91v-105h91zm90 0h-60v-105h15c24.813 0 45 20.187 45 45z" fill="#ff9100"/><g><g><path d="m482 299.5 30 15v60h-90v-15c0-8.401-6.599-15-15-15s-15 6.599-15 15v15h-272v-15c0-8.401-6.599-15-15-15s-15 6.599-15 15v15h-90v-60l30-15-30-15v-57h256 226c17.401 6 30 22.499 30 42v15z" fill="#fabe2c"/><path d="m392 374.5v-15c0-8.401 6.599-15 15-15s15 6.599 15 15v15h90v-60l-30-15 30-15v-15c0-19.501-12.599-36-30-42h-226v147z" fill="#ff9100"/></g><circle cx="407" cy="359.5" fill="#efe2dd" r="30"/><circle cx="105" cy="359.5" fill="#fff5f5" r="30"/><g id="School_Bus_1_"><g><path d="m407 404.5c-24.814 0-45-20.186-45-45s20.186-45 45-45 45 20.186 45 45-20.186 45-45 45zm0-60c-8.262 0-15 6.724-15 15s6.738 15 15 15 15-6.724 15-15-6.738-15-15-15z" fill="#41474d"/></g><g><path d="m105 404.5c-24.814 0-45-20.186-45-45s20.186-45 45-45 45 20.186 45 45-20.186 45-45 45zm0-60c-8.262 0-15 6.724-15 15s6.738 15 15 15 15-6.724 15-15-6.738-15-15-15z" fill="#5c6366"/></g><g><path d="m452 284.5h60v30h-60z" fill="#efe2dd"/></g><g><path d="m0 284.5h60v30h-60z" fill="#fff5f5"/></g></g></g></g></svg>