<svg id="Capa_1" enable-background="new 0 0 512 512" height="512" viewBox="0 0 512 512" width="512" xmlns="http://www.w3.org/2000/svg"><g><path d="m181 31h30v375h-30z" fill="#fff5f5"/><path d="m241 31h30v375h-30z" fill="#fff5f5"/><path d="m256.015 31h14.985v375h-14.985z" fill="#efe2dd"/><path d="m301 31h30v375h-30z" fill="#efe2dd"/><path d="m130 121h253v30h-253z" fill="#fed843"/><path d="m256.015 121h126.985v30h-126.985z" fill="#fabe2c"/><g><g><g><g><path d="m370.258 512h-228.516l17.783-36.596c-29.531-7.881-56.484-23.745-77.402-45.82-31.201-32.959-46.992-76.245-44.473-121.89 2.607-47.285 8.496-102.729 15.029-160.518-30.292-9.931-52.679-38.32-52.679-71.176 0-41.353 34.633-76 76-76 44.209 0 78.789 39.592 74.326 83.515-1.787 16.875-3.867 35.156-6.006 54.229-6.533 57.583-13.916 122.842-16.787 174.888-2.345 42.519 30.695 78.368 74.766 78.368h107.402c43.284 0 77.157-35.042 74.766-78.354-2.871-52.061-10.254-117.319-16.787-174.902-2.139-19.072-4.219-37.354-6.006-54.141-4.472-44.196 30.268-83.603 74.326-83.603 41.367 0 76 34.647 76 76 0 32.856-22.387 61.245-52.68 71.177 6.533 57.788 12.422 113.232 15.029 160.488 2.52 45.659-13.271 88.96-44.473 121.919-20.918 22.075-47.871 37.939-77.402 45.82z" fill="#fabe2c"/></g></g></g></g><path d="m309.701 391h-53.687v121h114.243l-17.783-36.596c29.531-7.881 56.484-23.745 77.402-45.82 31.201-32.959 46.992-76.26 44.473-121.919-2.607-47.256-8.496-102.7-15.029-160.488 30.293-9.932 52.68-38.321 52.68-71.177 0-41.353-34.633-76-76-76-44.057 0-78.798 39.406-74.326 83.603 1.787 16.787 3.867 35.068 6.006 54.141 6.533 57.583 13.916 122.842 16.787 174.902 2.391 43.311-31.482 78.354-74.766 78.354z" fill="#ff9100"/><g id="Culture_2_"><g><path d="m61 61h30v30h-30z" fill="#fed843"/></g><g><path d="m421 61h30v30h-30z" fill="#fabe2c"/></g></g></g></svg>