<svg id="Capa_1" enable-background="new 0 0 512 512" height="512" viewBox="0 0 512 512" width="512" xmlns="http://www.w3.org/2000/svg"><g><path d="m376.857 0-15 91-301.857-31h-60c0-16.5 6.599-31.5 17.701-42.301 10.799-11.1 25.799-17.699 42.299-17.699z" fill="#efe2dd"/><path d="m226.857 76.5 135 14.5 15-91h-150z" fill="#e1d3ce"/><g><path d="m421.857 45v422c0 24.899-20.099 45-45 45h-346.857v-30l30-60v-362h271.857v-15c0-24.901 20.099-45 45-45s45 20.099 45 45z" fill="#fff5f5"/></g><path d="m226.857 512h150c24.901 0 45-20.101 45-45v-422c0-24.901-20.099-45-45-45s-45 20.099-45 45v15h-105z" fill="#efe2dd"/><g id="History_1_"><g><path d="m120 361h181.857v30h-181.857z" fill="#5c6366"/></g><g><path d="m120 301h181.857v30h-181.857z" fill="#5c6366"/></g><g><path d="m120 241h181.857v30h-181.857z" fill="#5c6366"/></g><g><path d="m120 181h181.857v30h-181.857z" fill="#5c6366"/></g><g><path d="m120 121h121.857v30h-121.857z" fill="#5c6366"/></g><g fill="#5c6366"><path d="m496.556 114.099-39.743 43.356 12.744-57.155c-21.601 2.999-75.901 17.401-111.301 87.599-43.2 85.499-33.6 170.099-30 192.301l41.497-47.054-14.496 60.553c20.099-10.499 93.6-52.8 136.8-137.999 35.4-69.901 15.001-122.101 4.499-141.601z"/><path d="m486.956 99.699c-6.861.074-9.707-.255-17.399.601l-141.3 279.9-20.7 40.8h-95.7v30h114.3l29.101-57.301 141.299-279.6c-3.525-6.66-6.544-10.28-9.601-14.4z"/></g></g><path d="m60 422v60c0 16.5-13.5 30-30 30-16.466 0-30-13.368-30-30v-60z" fill="#efe2dd"/><g fill="#41474d"><path d="m226.857 361h75v30h-75z"/><path d="m226.857 301h75v30h-75z"/><path d="m226.857 241h75v30h-75z"/><path d="m226.857 181h75v30h-75z"/><path d="m226.857 121h15v30h-15z"/><path d="m486.956 99.699c-6.861.073-9.706-.255-17.399.601l-141.3 279.9-20.7 40.8h-80.7v30h99.3l29.101-57.301 141.299-279.6c-3.525-6.662-6.543-10.28-9.601-14.4z"/></g></g></svg>