<svg id="Capa_1" enable-background="new 0 0 512 512" height="512" viewBox="0 0 512 512" width="512" xmlns="http://www.w3.org/2000/svg"><g><g><path d="m415.439 195c0-6.601-.3-13.5-.901-20.101-10.198-98.099-93.299-174.599-194.099-174.899-7.8 0-15.601.599-23.701 1.5-42.299 5.099-81.299 24.3-111.299 53.1-30 28.799-51 66.899-57.599 108.9-10.801 68.7 12.9 110.1 38.099 153.6 24.3 42.299 49.501 85.8 49.501 162.9v32h180v-62h105v-94.801l86.4-34.799c-33.002-33.3-71.401-78.3-71.401-125.4z" fill="#ffd9b3"/></g><path d="m486.84 320.4-86.4 34.799v94.801h-105v62h-75v-512c100.8.3 183.9 76.8 194.099 174.899.601 6.601.901 13.5.901 20.101-.001 47.1 38.398 92.1 71.4 125.4z" fill="#fb9"/><g id="Philosophy_2_"><path d="m280.315 120c-3.413 0-30.764 1.128-60 35.154-29.236-34.026-56.587-35.154-60-35.154-33.076 0-60 26.909-60 60s26.924 60 60 60c3.413 0 30.764-1.128 60-35.154 29.236 34.026 56.587 35.154 60 35.154 33.076 0 60-26.909 60-60s-26.924-60-60-60zm-120 90c-16.553 0-30-13.462-30-30 0-16.489 13.376-29.892 29.861-29.973 1.701.117 20.11 2.399 41.483 29.973-21.915 28.277-40.835 29.96-41.344 30zm120.139-.027c-1.701-.117-20.11-2.399-41.483-29.973 21.372-27.574 39.781-29.855 41.483-29.973 16.485.081 29.861 13.484 29.861 29.973s-13.376 29.892-29.861 29.973z" fill="#ff641a"/></g><path d="m280.315 240c33.076 0 60-26.909 60-60s-26.924-60-60-60c-3.413 0-30.764 1.128-60 35.154v49.691c29.236 34.027 56.587 35.155 60 35.155zm.139-89.973c16.485.081 29.861 13.484 29.861 29.973s-13.376 29.892-29.861 29.973c-1.701-.117-20.11-2.399-41.483-29.973 21.373-27.574 39.782-29.855 41.483-29.973z" fill="#f03800"/></g></svg>