<svg id="Capa_1" enable-background="new 0 0 512 512" height="512" viewBox="0 0 512 512" width="512" xmlns="http://www.w3.org/2000/svg"><g><g><path d="m256 512c-140.596 0-256-115.39-256-256s115.404-256 256-256c57.246 0 111.328 19.53 156.416 54.599l-18.398 23.672c-39.786-30.923-87.51-48.271-138.018-48.271-124.072 0-226 101.928-226 226s101.928 226 226 226 226-101.928 226-226c0-50.508-17.348-98.232-48.285-138.003l23.672-18.428c35.068 45.103 54.613 99.2 54.613 156.431 0 140.61-115.404 256-256 256z" fill="#efe2dd"/></g><g fill="#e1d3ce"><path d="m394.018 78.271 18.398-23.672c-45.088-35.069-99.17-54.599-156.416-54.599v30c50.508 0 98.232 17.348 138.018 48.271z"/><path d="m433.715 117.997c30.937 39.771 48.285 87.495 48.285 138.003 0 124.072-101.928 226-226 226v30c140.596 0 256-115.39 256-256 0-57.231-19.545-111.328-54.613-156.431z"/></g><g id="Astronomy_1_"><g><g><path d="m425.688 131.298c-24.937-.03-44.971-20.232-44.971-45 0-24.645 19.856-44.969 44.971-45h.029c24.795 0 45 20.063 45 45 0 12.012-4.688 23.32-13.184 31.816-14.504 14.505-28.756 12.564-31.845 13.184z" fill="#26bfa6"/></g></g><g><path d="m255.795 420.883c-31.553 0-63.252-8.965-90.938-27.305l16.582-25.02c53.32 35.347 124.775 28.154 170.01-17.095 25.459-25.459 39.492-59.355 39.492-95.464s-14.033-70.005-39.492-95.464c-52.617-52.617-138.281-52.617-190.898 0-45.234 45.22-52.441 116.733-17.109 170.024l-25.02 16.582c-43.154-65.156-34.365-152.549 20.918-207.817 31.113-31.113 72.539-48.252 116.66-48.252s85.547 17.139 116.66 48.252c31.143 31.113 48.281 72.554 48.281 116.675s-17.139 85.562-48.281 116.675c-31.787 31.788-74.18 48.209-116.865 48.209z" fill="#efe2dd"/></g><g><g><g><g><path d="m149.945 407.069c-.029 0-.029 0-.029 0-24.937-.03-44.971-20.232-44.971-45 0-24.645 19.856-44.969 44.971-45h.029c24.795 0 45 20.063 45 45 0 24.828-20.102 45-45 45z" fill="#57d9ad"/></g></g></g></g><g><path d="m256 331c-41.367 0-75-33.647-75-75s33.633-75 75-75 75 33.647 75 75-33.633 75-75 75z" fill="#ff641a"/></g></g><path d="m351.449 160.536c25.459 25.459 39.492 59.355 39.492 95.464s-14.033 70.005-39.492 95.464c-25.968 25.977-60.59 38.952-95.449 38.996v30.403c42.612-.051 84.924-16.452 116.66-48.188 31.143-31.113 48.281-72.554 48.281-116.675s-17.139-85.562-48.281-116.675c-31.113-31.113-72.539-48.252-116.66-48.252v30c34.57 0 69.141 13.155 95.449 39.463z" fill="#e1d3ce"/><path d="m331 256c0-41.353-33.633-75-75-75v150c41.367 0 75-33.647 75-75z" fill="#f03800"/></g></svg>