<svg id="Capa_1" enable-background="new 0 0 511.991 511.991" height="512" viewBox="0 0 511.991 511.991" width="512" xmlns="http://www.w3.org/2000/svg"><g><path d="m167 241.002 30 90-30 90h-77c-49.501 0-90-40.501-90-90 0-49.501 40.499-90 90-90z" fill="#efe2dd"/><g id="Pharmacy_1_"><g><g><g><path d="m332 331.002c0 49.499-40.499 90-90 90h-75v-180h75c49.501 0 90 40.5 90 90z" fill="#26bfa6"/></g></g></g><g><path d="m416.3 154.302-24.132 101.827-84.168 41.872-60-45.298c-39.6-29.702-47.401-86.4-17.401-126s86.4-47.401 126-17.701z" fill="#efe2dd"/></g></g><path d="m494.001 325.602c-29.872 39.488-86.17 47.428-126.301 17.699l-59.7-45.3 108.3-143.699 60 45.3c39.811 29.856 47.204 86.661 17.701 126z" fill="#f03800"/></g></svg>