<svg id="Capa_1" enable-background="new 0 0 512 512" height="512" viewBox="0 0 512 512" width="512" xmlns="http://www.w3.org/2000/svg"><g><path d="m90 137 30 315-120 15v-330c0-24.901 20.099-45 45-45 19.501 0 36.301 12.599 42.299 30 1.8 4.799 2.701 9.6 2.701 15z" fill="#e1d3ce"/><g><g><g><path d="m512 122v390h-467c-24.901 0-45-20.101-45-45 0-24.901 20.099-45 45-45h45v-285c0-5.4-.901-10.201-2.701-15z" fill="#fff5f5"/></g></g></g><path d="m255 122h257v390h-257z" fill="#efe2dd"/><g id="Architecture_1_"><path d="m450 392h-30v-155.317h-30v155.317h-210v-150h162.568v-30h-162.568v-30h-30v30h-30v30h30v150h-30v30h30v30h30v-30h210v30h30v-30h30z" fill="#5c6366"/></g><path d="m389.099 294.5-15.599 30.599-65.7 36.901h-97.8v-30h88.801l-5.4-47.701 15.899-30.899z" fill="#5c6366"/><g fill="#41474d"><path d="m420 236.683h-30v155.317h-135v30h135v30h30v-30h30v-30h-30z"/><path d="m255 212h87.568v30h-87.568z"/></g><g><g><path d="m491.7 94.1-102.601 200.4-71.422 8.666-8.377-49.766 102.599-200.101 69.647-12.502z" fill="#26bfa6"/></g></g><path d="m507.044 65.417-15.344 28.683-79.801-40.801 15.045-28.682c11.4-22.202 38.401-30.901 60.601-19.801 21.9 11.4 30.899 38.701 19.499 60.601z" fill="#ff9100"/><path d="m293.401 284.299 5.4 47.701h-43.801v30h52.8l65.7-36.901 15.599-30.599-79.799-41.1z" fill="#41474d"/></g></svg>