<svg id="Capa_1" enable-background="new 0 0 512 512" height="512" viewBox="0 0 512 512" width="512" xmlns="http://www.w3.org/2000/svg"><g><g id="Music_1_"><path d="m60 96.391v149.482c-4.715-1.681-9.716-2.763-15-2.763-24.814 0-45 20.186-45 45s20.186 45 45 45 45-20.186 45-45v-108.282l120-30v-90.937z" fill="#57d9ad"/><path d="m482 93.109v152.763c-4.715-1.681-9.716-2.763-15-2.763-24.814 0-45 20.186-45 45s20.186 45 45 45 45-20.186 45-45v-195z" fill="#26bfa6"/></g><path d="m181 217.299c0 4.013 0 158.557 0 148.574-4.715-1.681-9.716-2.763-15-2.763-24.814 0-45 20.186-45 45s20.186 45 45 45 45-20.186 45-45v-109.186l150-50.002v86.951c-4.715-1.681-9.716-2.763-15-2.763-24.814 0-45 20.186-45 45s20.186 45 45 45 45-20.186 45-45c0-3.001 0-237.196 0-230.815z" fill="#fed843"/><path d="m346 333.109c-24.814 0-45 20.186-45 45s20.186 45 45 45 45-20.186 45-45c0-3.001 0-237.197 0-230.815l-135 45.004v91.626l105-35.002v86.951c-4.715-1.681-9.716-2.764-15-2.764z" fill="#fabe2c"/></g></svg>