<svg id="Capa_1" enable-background="new 0 0 512 512" height="512" viewBox="0 0 512 512" width="512" xmlns="http://www.w3.org/2000/svg"><g><path d="m316 496c-18.75 0-36.709-8.994-48.018-24.053l-11.982-15.981-11.982 15.981c-11.309 15.059-29.268 24.053-48.018 24.053-28.916 0-53.701-20.61-59.004-48.999l-1.875-10.122-10.107-1.89c-28.418-5.273-49.014-30.088-49.014-58.989v-7.485l-5.977-4.849c-21.383-16.109-30.715-44.657-18.721-71.543l2.755-6.123-2.754-6.123c-11.987-26.87-2.676-55.424 18.721-71.543l5.976-4.497v-7.485c0-19.146 8.76-36.519 24.023-48.018l5.977-4.497v-7.485c0-19.146 8.76-36.519 24.023-48.018l5.977-4.497v-7.485c0-33.443 26.924-60.352 60-60.352 18.75 0 36.709 8.994 48.018 24.053l11.982 15.981 11.982-15.981c11.309-15.059 29.268-24.053 48.018-24.053 33.076 0 60 26.909 60 60v7.485l5.977 4.849c15.263 11.499 24.023 28.872 24.023 47.666v7.485l5.977 4.849c15.263 11.499 24.023 28.872 24.023 47.666v7.485l5.977 4.849c21.383 16.109 30.715 44.657 18.721 71.543l-2.755 6.123 2.754 6.123c11.987 26.87 2.676 55.424-18.721 71.543l-5.976 4.497v7.485c0 29.253-20.596 54.067-49.014 59.341l-10.107 1.89-1.875 10.122c-5.303 28.389-30.088 48.999-59.004 48.999z" fill="#ffd9b3"/><path d="m267.982 471.947c11.309 15.059 29.268 24.053 48.018 24.053 28.916 0 53.701-20.61 59.004-48.999l1.875-10.122 10.107-1.89c28.418-5.273 49.014-30.088 49.014-59.341v-7.485l5.977-4.497c21.396-16.119 30.707-44.674 18.721-71.543l-2.755-6.123 2.754-6.123c11.993-26.887 2.662-55.435-18.721-71.543l-5.976-4.849v-7.485c0-18.794-8.76-36.167-24.023-47.666l-5.977-4.849v-7.485c0-18.794-8.76-36.167-24.023-47.666l-5.977-4.849v-7.485c0-33.091-26.924-60-60-60-18.75 0-36.709 8.994-48.018 24.053l-11.982 15.981v399.932z" fill="#fb9"/><path d="m451 196.322c-.744-3.028 1.94-35.982-30-60-.744-3.028 1.94-35.982-30-60 0-.103 0-.22 0-.322 0-41.353-33.633-76-75-76-24.626 0-46.32 13.081-60 31.458-13.68-18.377-35.374-31.458-60-31.458-41.367 0-75 34.647-75 76v.322c-30.928 23.257-29.254 56.963-30 60-30.928 23.257-29.254 56.963-30 60-27.491 20.672-37.939 57.615-23.525 89.678-14.461 32.217-3.852 69.091 23.525 89.678v.322c0 36.665 26.455 67.266 61.26 73.74 6.474 34.82 37.09 62.26 73.74 62.26 24.626 0 46.32-13.081 60-31.458 13.68 18.377 35.374 31.458 60 31.458 36.65 0 67.266-27.44 73.74-62.26 34.805-6.474 61.26-37.075 61.26-73.74 0-.103 0-.22 0-.322 27.337-20.557 38.006-57.417 23.525-89.678 14.389-32.008 4.014-68.97-23.525-89.678zm-240 281.915v-72.237c0-24.814-20.186-45-45-45v30c8.262 0 15 6.724 15 15v72.237c-17.422-6.213-30-22.707-30-42.237v-15h-15c-25.827 0-48.165-22.319-44.355-50.889l1.377-10.093-8.877-4.995c-17.739-9.961-28.493-31.506-20.041-54.023h71.896v-30h-71.907c-8.349-22.332 2.161-43.976 20.052-54.023l8.76-6.313-1.436-10.151c-2.295-16.558 6.413-34.402 22.676-43.535l8.76-6.313-1.436-10.151c-2.003-14.452 4.445-28.559 15.172-37.912l20.306 15.368 18.105-23.936-24.036-18.19c.088-24.739 20.224-44.844 44.984-44.844 24.814 0 45 20.186 45 45v77.763c-4.715-1.681-9.716-2.763-15-2.763h-45v30h45c8.262 0 15 6.724 15 15v75h-30c-8.262 0-15-6.724-15-15h-30c0 24.814 20.186 45 45 45h30v135c0 19.53-12.578 36.024-30 42.237zm216.855-123.214-8.76 6.313 1.436 10.151c3.447 24.865-16.957 49.513-44.531 49.513h-15v15c0 19.53-12.578 36.024-30 42.237v-72.237c0-8.276 6.738-15 15-15v-30c-24.814 0-45 20.186-45 45v72.237c-17.422-6.213-30-22.707-30-42.237v-135h30c24.814 0 45-20.186 45-45h-30c0 8.276-6.738 15-15 15h-30v-75c0-8.276 6.738-15 15-15h45v-30h-45c-5.284 0-10.285 1.082-15 2.763v-77.763c0-24.814 20.186-45 45-45 24.76 0 44.896 20.105 44.984 44.843l-24.036 18.19 18.105 23.936 20.306-15.368c10.614 9.254 17.201 22.755 14.996 39.289l-1.377 10.093 8.877 4.995c15.067 8.462 25.138 25.125 22.5 44.912l-1.377 10.093 8.877 4.995c17.626 9.899 28.547 31.303 20.052 54.023h-71.907v30h71.896c8.502 22.651-2.453 44.145-20.041 54.022z" fill="#fb9"/><path d="m316 512c36.65 0 67.266-27.44 73.74-62.26 34.805-6.474 61.26-37.075 61.26-73.74 0-.103 0-.22 0-.322 27.338-20.557 38.005-57.416 23.525-89.678 14.388-32.009 4.014-68.97-23.525-89.678-.743-3.029 1.941-35.982-30-60-.743-3.029 1.941-35.982-30-60 0-.103 0-.22 0-.322 0-41.353-33.633-76-75-76-24.626 0-46.32 13.081-60 31.458v449.084c13.68 18.377 35.374 31.458 60 31.458zm-45-211h30c24.814 0 45-20.186 45-45h-30c0 8.276-6.738 15-15 15h-30v-75c0-8.276 6.738-15 15-15h45v-30h-45c-5.284 0-10.285 1.082-15 2.763v-77.763c0-24.814 20.186-45 45-45 24.76 0 44.896 20.105 44.984 44.843l-24.036 18.19 18.105 23.936 20.306-15.368c10.613 9.254 17.201 22.755 14.996 39.289l-1.377 10.093 8.877 4.995c15.068 8.461 25.139 25.124 22.5 44.912l-1.377 10.093 8.877 4.995c17.626 9.899 28.546 31.302 20.052 54.023h-71.907v30h71.896c8.502 22.652-2.454 44.145-20.041 54.023l-8.76 6.313 1.436 10.151c3.446 24.864-16.957 49.512-44.531 49.512h-15v15c0 19.53-12.578 36.024-30 42.237v-72.237c0-8.276 6.738-15 15-15v-30c-24.814 0-45 20.186-45 45v72.237c-17.422-6.213-30-22.707-30-42.237z" fill="#f96"/></g></svg>