<svg id="Capa_1" enable-background="new 0 0 512 512" height="512" viewBox="0 0 512 512" width="512" xmlns="http://www.w3.org/2000/svg"><g><g><path d="m482 391h-452v-330h452z" fill="#5c6366"/></g><path d="m256.035 61h225.965v330h-225.965z" fill="#41474d"/><g id="Laptop_2_"><g><path d="m437 451h-362c-41.367 0-75-33.647-75-75v-15h512v15c0 41.353-33.633 75-75 75z" fill="#efe2dd"/></g></g><path d="m512 361h-255.965v90h180.965c41.367 0 75-33.647 75-75z" fill="#e1d3ce"/><path d="m356.605 275.395-64.394-64.395h38.789v-30h-90v90h30v-38.789l64.395 64.394z" fill="#bcf7fc"/><path d="m331 211v-30h-90l105 105 10.605-10.605-64.394-64.395z" fill="#9df"/></g></svg>