<svg id="Capa_1" enable-background="new 0 0 512 512" height="512" viewBox="0 0 512 512" width="512" xmlns="http://www.w3.org/2000/svg"><g><g><path d="m451 512h-330v-91h240v-330h90z" fill="#efe2dd"/></g><path d="m361 421h-135v91h225v-421h-90z" fill="#e1d3ce"/><g><path d="m361 151h-270c-16.569 0-30-13.431-30-30v-90h330v90c0 16.569-13.431 30-30 30z" fill="#fabe2c"/></g><path d="m391 31h-165v120h135c16.569 0 30-13.433 30-30z" fill="#ff9100"/><g><path d="m391 451h-330v-330h330z" fill="#fff5f5"/></g><path d="m226 121h165v330h-165z" fill="#efe2dd"/><g id="Note_1_"><g><path d="m121 0h30v91h-30z" fill="#fff5f5"/></g><g><path d="m181 0h30v91h-30z" fill="#fff5f5"/></g><g><path d="m241 0h30v91h-30z" fill="#efe2dd"/></g><g><path d="m301 0h30v91h-30z" fill="#efe2dd"/></g><g><path d="m121 181h210v30h-210z" fill="#5c6366"/></g><g><path d="m121 241h210v30h-210z" fill="#5c6366"/></g><g><path d="m121 301h210v30h-210z" fill="#5c6366"/></g><g><path d="m121 361h210v30h-210z" fill="#5c6366"/></g></g><g fill="#41474d"><path d="m226 361h105v30h-105z"/><path d="m226 301h105v30h-105z"/><path d="m226 241h105v30h-105z"/><path d="m226 181h105v30h-105z"/></g></g></svg>