<svg id="Capa_1" enable-background="new 0 0 512 512" height="512" viewBox="0 0 512 512" width="512" xmlns="http://www.w3.org/2000/svg"><g><path d="m482 166h-211v-150h241v120c0 16.569-13.431 30-30 30z" fill="#5c6366"/></g><path d="m512 16h-121v150h91c16.569 0 30-13.433 30-30z" fill="#282c33"/><g><path d="m512 496h-216.717c-11.363 0-21.751-6.42-26.833-16.584l-36.708-73.416h159.258v-270h121z" fill="#5c6366"/></g><path d="m512 496v-360h-121v270 90z" fill="#282c33"/><g><g><path d="m310.258 496h-198.516l45-90h108.516z" fill="#efe2dd"/></g><path d="m211 496h99.258l-45-90h-54.258z" fill="#e1d3ce"/><g><path d="m421 436h-421v-300h421z" fill="#5c6366"/></g><path d="m211 136h210v300h-210z" fill="#41474d"/><g id="Personal_Computer_1_"><g><g><g><g><path d="m136 286c-24.814 0-45-20.186-45-45s20.186-45 45-45 45 20.186 45 45-20.186 45-45 45z" fill="#57d9ad"/></g></g></g></g><g><g><g><g><path d="m211 376h-150v-15c0-41.353 33.633-75 75-75s75 33.647 75 75z" fill="#57d9ad"/></g></g></g></g><g><path d="m241 286h120v30h-120z" fill="#efe2dd"/></g><g><path d="m241 346h120v30h-120z" fill="#efe2dd"/></g><g><path d="m376 76h30v30h-30z" fill="#fabe2c"/></g></g><path d="m391 76h15v30h-15z" fill="#ff9100"/></g></svg>