<svg id="Capa_1" enable-background="new 0 0 512 512" height="512" viewBox="0 0 512 512" width="512" xmlns="http://www.w3.org/2000/svg"><g><path d="m355.272 482-85.854-171.709-13.418 6.709-13.418-6.709-85.854 171.709h-50.728v30h120v-30h-35.728l65.728-131.455 65.728 131.455h-35.728v30h120v-30z" fill="#efe2dd"/><path d="m321.728 482h-35.728v30h120v-30h-50.728l-85.854-171.709-13.418 6.709v33.545z" fill="#e1d3ce"/><g><path d="m361 317h-331v-302h452v227c0 16.569-13.431 30-30 30h-91z" fill="#5c6366"/></g><path d="m482 242v-227h-226v302h105v-45h91c16.569 0 30-13.433 30-30z" fill="#41474d"/><g id="Chalkboard_1_"><path d="m0 0h512v30h-512z" fill="#efe2dd"/></g><path d="m256 0h256v30h-256z" fill="#e1d3ce"/><g><path d="m482 317h-151v-75h151z" fill="#fabe2c"/></g><path d="m0 302h512v30h-512z" fill="#efe2dd"/><path d="m256 302h256v30h-256z" fill="#e1d3ce"/></g></svg>