<svg id="Capa_1" enable-background="new 0 0 512 512" height="512" viewBox="0 0 512 512" width="512" xmlns="http://www.w3.org/2000/svg"><g><g><path d="m60 512h-15c-24.853 0-45-20.147-45-45v-422h30c0 8.276 6.738 15 15 15h45v422c0 16.569-13.431 30-30 30z" fill="#ff641a"/></g><g><path d="m390 512h-330v-452h90v111.728l15-7.5 15 7.5v-111.728h180c16.569 0 30 13.431 30 30z" fill="#fed843"/></g><path d="m360 60h-165v452h195v-422c0-16.569-13.431-30-30-30z" fill="#fabe2c"/><g id="Search_Book_1_"><g><path d="m210 220.272-45-22.5-45 22.5v-160.272h90z" fill="#ff641a"/></g></g><path d="m165 197.772 45 22.5v-160.272h-45z" fill="#f03800"/><g><path d="m390 90h-345c-24.814 0-45-20.186-45-45s20.186-45 45-45h345v30c-8.262 0-15 6.724-15 15s6.738 15 15 15z" fill="#fff5f5"/></g><path d="m195 90h195v-30c-8.262 0-15-6.724-15-15s6.738-15 15-15v-30h-195z" fill="#efe2dd"/><g><path d="m512 391h-224.275c5.494-16.196 12.275-25.283 12.275-45 0-19.721-6.764-28.756-12.275-45h224.275z" fill="#5c6366"/></g><path d="m512 346h-212c0 19.717-6.78 28.804-12.275 45h224.275z" fill="#41474d"/><circle cx="225" cy="346" fill="#fff5f5" r="105"/><path d="m225 451c57.99 0 105-47.01 105-105h-210c0 57.99 47.01 105 105 105z" fill="#efe2dd"/></g></svg>