<svg id="Capa_1" enable-background="new 0 0 512 512" height="512" viewBox="0 0 512 512" width="512" xmlns="http://www.w3.org/2000/svg"><g><g><path d="m361 206.693h-210v-122.153l105 31.494 105-31.494z" fill="#41474d"/></g><path d="m361 206.693v-122.153l-105 31.494v90.659z" fill="#282c33"/><g><path d="m301 485.966-45-22.5-45 22.5v-129.273h90z" fill="#f03800"/></g><g id="Graduation_2_"><g><path d="m391 86.693h30v120h-30z" fill="#f03800"/></g></g><g><path d="m256 147.353-202.207-60.66 202.207-60.659 202.207 60.659z" fill="#5c6366"/></g><path d="m458.207 86.693-202.207-60.659v121.319z" fill="#41474d"/><path d="m301 356.693h-45v106.773l45 22.5z" fill="#cd0000"/><g><path d="m492.501 275.693 19.499-26.4-211 16.199-45 15.899-45-15.899-211-16.199 19.499 26.4c22.717 31.314 22.863 70.485 0 102.001l-19.499 26.398 211-16.199 45-15.901 45 15.901 211 16.199-19.499-26.398c-22.717-31.314-22.863-70.485 0-102.001z" fill="#fff5f5"/></g><path d="m301 387.893 211 16.199-19.499-26.398c-22.716-31.313-22.864-70.486 0-102.001l19.499-26.4-211 16.199-45 15.899v90.601z" fill="#efe2dd"/><path d="m286 266.693h-60l-15-1.201v122.401l15-1.2h60l15 1.2v-122.401z" fill="#ff641a"/><path d="m286 266.693h-30v120h30l15 1.2v-122.401z" fill="#f03800"/></g></svg>