<svg id="Capa_1" enable-background="new 0 0 512 512" height="512" viewBox="0 0 512 512" width="512" xmlns="http://www.w3.org/2000/svg"><g><path d="m340.901 138.3v56.7l-84.901 30-84.901-30v-56.7l84.901-30.151z" fill="#41474d"/><path d="m362.199 450h-212.398l6.298-75 99.901-30 99.901 30z" fill="#41474d"/><path d="m340.901 195v-56.7l-84.901-30.151v116.851z" fill="#282c33"/><path d="m362.199 450-6.298-75-99.901-30v105z" fill="#282c33"/><g fill="#5c6366"><path d="m355.901 375h-199.802l15-180h169.802z"/><path d="m401.8 0-60.899 138.3h-169.802l-60.899-138.3h77.101l23.699 23.699v-23.699h90v23.699l23.699-23.699z"/></g><g id="Chess_1_"><g><path d="m391 512h-270v-47c0-24.814 20.186-45 45-45h180c24.814 0 45 20.186 45 45z" fill="#5c6366"/></g></g><g fill="#41474d"><path d="m256 512h135v-47c0-24.814-20.186-45-45-45h-90z"/><path d="m256 0v138.3h84.901l60.899-138.3h-77.101l-23.699 23.699v-23.699z"/><path d="m256 375h99.901l-15-180h-84.901z"/></g></g></svg>