<svg id="Capa_1" enable-background="new 0 0 512 512" height="512" viewBox="0 0 512 512" width="512" xmlns="http://www.w3.org/2000/svg"><g><g><path d="m256 512c-57.897 0-105-47.551-105-106v-300c0-58.449 47.103-106 105-106s105 47.551 105 106v300c0 58.449-47.103 106-105 106zm0-482c-41.355 0-75 34.093-75 76v300c0 41.907 33.645 76 75 76s75-34.093 75-76v-300c0-41.907-33.645-76-75-76z" fill="#efe2dd"/></g><path d="m331 106v300c0 41.907-33.645 76-75 76v30c57.897 0 105-47.551 105-106v-300c0-58.449-47.103-106-105-106v30c41.355 0 75 34.093 75 76z" fill="#e1d3ce"/><g id="Physics_1_"><g><g><g><path d="m385.894 435.992c-18.032 0-36.152-4.627-52.49-14.06l-259.808-150c-32.878-18.982-52.52-53.958-52.524-90.952-.001-6.523.609-13.109 1.864-19.682l29.468 5.628c-.897 4.694-1.332 9.398-1.332 14.058.005 26.423 14.037 51.406 37.524 64.967l259.808 150c27.63 15.952 62.405 12.669 86.533-8.168l19.608 22.705c-19.512 16.851-43.997 25.504-68.651 25.504z" fill="#efe2dd"/></g></g></g><g><g><path d="m489.064 350.701-29.468-5.628c5.981-31.315-8.563-63.073-36.193-79.025l-259.808-150c-27.629-15.951-62.404-12.668-86.533 8.168l-19.608-22.705c33.783-29.175 82.465-33.773 121.142-11.444l259.808 150c38.676 22.329 59.035 66.79 50.66 110.634z" fill="#efe2dd"/></g></g><g><path d="m256 301c-24.813 0-45-20.187-45-45s20.187-45 45-45 45 20.187 45 45-20.187 45-45 45z" fill="#ff641a"/></g></g><path d="m256 211v90c24.813 0 45-20.187 45-45s-20.187-45-45-45" fill="#f03800"/><path d="m256 377.244 77.404 44.689c16.338 9.433 34.458 14.06 52.49 14.06 24.654 0 49.14-8.653 68.652-25.503l-19.608-22.705c-24.128 20.838-58.903 24.12-86.533 8.168l-92.405-53.35z" fill="#e1d3ce"/><path d="m256 169.397 167.404 96.65c27.629 15.952 42.174 47.709 36.193 79.025l29.468 5.628c8.374-43.844-11.985-88.304-50.661-110.633l-182.404-105.311z" fill="#e1d3ce"/><g><path d="m126.106 435.992c-24.657.001-49.138-8.651-68.652-25.503l19.608-22.705c24.128 20.837 58.903 24.12 86.533 8.168l259.808-150c27.629-15.952 42.174-47.709 36.193-79.025l29.468-5.628c8.374 43.844-11.985 88.304-50.661 110.633l-259.808 150c-16.334 9.432-34.46 14.06-52.489 14.06z" fill="#efe2dd"/></g><g><g><path d="m22.936 350.701c-1.255-6.572-1.865-13.158-1.864-19.682.005-36.994 19.646-71.97 52.524-90.952l259.808-150c38.676-22.33 87.358-17.731 121.142 11.444l-19.608 22.705c-24.129-20.838-58.905-24.121-86.533-8.168l-259.808 150c-23.488 13.561-37.52 38.543-37.524 64.967 0 4.66.435 9.364 1.332 14.058z" fill="#efe2dd"/></g></g><path d="m256 377.244 182.404-105.311c38.676-22.329 59.035-66.79 50.661-110.633l-29.468 5.628c5.981 31.315-8.563 63.073-36.193 79.025l-167.404 96.65z" fill="#e1d3ce"/><path d="m256 169.397 92.404-53.35c27.628-15.952 62.404-12.669 86.533 8.168l19.608-22.705c-33.783-29.175-82.466-33.773-121.142-11.444l-77.403 44.69z" fill="#e1d3ce"/><g><g><path d="m25.654 174.972c-21.538-12.437-28.909-39.931-16.471-61.472 12.407-21.489 39.984-28.877 61.471-16.471 21.489 12.407 28.878 39.982 16.471 61.471-12.349 21.39-39.89 28.929-61.471 16.472z" fill="#57d9ad"/></g></g><g><g><path d="m441.346 414.971c-21.489-12.407-28.877-39.983-16.471-61.471s39.982-28.878 61.471-16.471c21.538 12.436 28.908 39.93 16.47 61.472-12.344 21.382-39.884 28.933-61.47 16.47z" fill="#26bfa6"/></g></g><g><g><path d="m424.875 158.5c-12.406-21.488-5.018-49.064 16.471-61.471 21.488-12.407 49.064-5.018 61.471 16.471 12.436 21.538 5.07 49.034-16.47 61.471-21.626 12.485-49.145 4.881-61.472-16.471z" fill="#ff9100"/></g></g><g><path d="m9.183 398.5c-12.436-21.538-5.07-49.034 16.47-61.471 21.489-12.406 49.064-5.017 61.471 16.472s5.018 49.064-16.471 61.471c-21.625 12.484-49.142 4.88-61.47-16.472z" fill="#fabe2c"/></g></g></svg>