<svg id="Capa_1" enable-background="new 0 0 512 512" height="512" viewBox="0 0 512 512" width="512" xmlns="http://www.w3.org/2000/svg"><g><g><g><g><path d="m388.357 136.002h67.286v29.997h-67.286z" fill="#26bfa6" transform="matrix(.707 -.707 .707 .707 16.828 342.626)"/></g></g></g><g><g><g><path d="m407.002 207.357h29.997v67.286h-29.997z" fill="#26bfa6" transform="matrix(.707 -.707 .707 .707 -46.812 368.986)"/></g></g></g><g><g><g><path d="m388.357 316.002h67.286v29.997h-67.286z" fill="#26bfa6" transform="matrix(.707 -.707 .707 .707 -110.451 395.347)"/></g></g></g><g><g><g><g><path d="m166 451c-24.814 0-45-20.186-45-45v-270h90v270c0 24.814-20.186 45-45 45z" fill="#57d9ad"/></g></g></g></g><path d="m211 406v-270h-45v315c24.814 0 45-20.186 45-45z" fill="#26bfa6"/><g id="Chemistry_1_"><path d="m91 121h150v30h-150z" fill="#fff5f5"/><path d="m301 482v-482h-30v241h-210v-241h-30v482h-31v30h91v-30h-30v-211h210v211h-30v30h90v-30z" fill="#efe2dd"/></g><path d="m166 121h75v30h-75z" fill="#efe2dd"/><path d="m241 482v30h90v-30h-30v-482h-30v241h-105v30h105v211z" fill="#e1d3ce"/><g><path d="m467 151c-24.814 0-45-20.186-45-45s20.186-45 45-45 45 20.186 45 45-20.186 45-45 45z" fill="#57d9ad"/></g><g><g><g><g><path d="m377 241c-24.814 0-45-20.186-45-45s20.186-45 45-45 45 20.186 45 45-20.186 45-45 45z" fill="#57d9ad"/></g></g></g></g><g><g><g><g><path d="m467 331c-24.814 0-45-20.186-45-45s20.186-45 45-45 45 20.186 45 45-20.186 45-45 45z" fill="#57d9ad"/></g></g></g></g><g><path d="m377 421c-24.814 0-45-20.186-45-45s20.186-45 45-45 45 20.186 45 45-20.186 45-45 45z" fill="#57d9ad"/></g></g></svg>