<svg id="Capa_1" enable-background="new 0 0 512 512" height="512" viewBox="0 0 512 512" width="512" xmlns="http://www.w3.org/2000/svg"><g><g><g><g><path d="m376 90c-24.814 0-45-20.186-45-45s20.186-45 45-45 45 20.186 45 45-20.186 45-45 45z" fill="#c86e59"/></g></g><g><g><g><g><path d="m451 180h-150v-15c0-41.353 33.633-75 75-75s75 33.647 75 75z" fill="#fabe2c"/></g></g></g></g><path d="m421 45c0-24.814-20.186-45-45-45v90c24.814 0 45-20.186 45-45z" fill="#a34f3e"/><path d="m451 180v-15c0-41.353-33.633-75-75-75v90z" fill="#ff9100"/></g><g><g><g><path d="m136 90c-24.814 0-45-20.186-45-45s20.186-45 45-45 45 20.186 45 45-20.186 45-45 45z" fill="#c86e59"/></g></g><g><g><g><g><path d="m211 180h-150v-15c0-41.353 33.633-75 75-75s75 33.647 75 75z" fill="#fabe2c"/></g></g></g></g><path d="m181 45c0-24.814-20.186-45-45-45v90c24.814 0 45-20.186 45-45z" fill="#a34f3e"/><path d="m211 180v-15c0-41.353-33.633-75-75-75v90z" fill="#ff9100"/></g><g><g><g><g><g><path d="m256 90c-24.814 0-45-20.186-45-45s20.186-45 45-45 45 20.186 45 45-20.186 45-45 45z" fill="#ffd9b3"/></g></g></g></g><g><g><g><g><path d="m331 180h-150v-15c0-41.353 33.633-75 75-75s75 33.647 75 75z" fill="#57d9ad"/></g></g></g></g><path d="m301 45c0-24.814-20.186-45-45-45v90c24.814 0 45-20.186 45-45z" fill="#fb9"/><path d="m331 180v-15c0-41.353-33.633-75-75-75v90z" fill="#26bfa6"/></g><g><path d="m512 361c0 16.569-14.431 30-31 30h-60v-15c0-25.035-20.621-45-45-45-24.814 0-45 20.186-45 45h-30c0-25.035-20.621-45-45-45-24.814 0-45 20.186-45 45h-30c0-25.436-21.116-45.242-45.472-44.997-24.565.247-44.528 23.858-44.528 48.424v11.573h-61c-16.569 0-30-13.431-30-30v-211h512z" fill="#efe2dd"/></g><path d="m301 376h30c0-24.814 20.186-45 45-45 24.379 0 45 19.964 45 45v15h60c16.569 0 31-13.433 31-30v-211h-256v181c24.379 0 45 19.964 45 45z" fill="#e1d3ce"/><g><g><g><g><g><path d="m376 301c-24.814 0-45-20.186-45-45s20.186-45 45-45 45 20.186 45 45-20.186 45-45 45z" fill="#ffd9b3"/></g></g></g></g><g><g><g><g><path d="m451 391h-150v-15c0-41.353 33.633-75 75-75s75 33.647 75 75z" fill="#57d9ad"/></g></g></g></g><path d="m421 256c0-24.814-20.186-45-45-45v90c24.814 0 45-20.186 45-45z" fill="#fb9"/><path d="m451 391v-15c0-41.353-33.633-75-75-75v90z" fill="#26bfa6"/></g><g><g><g><path d="m136 301c-24.814 0-45-20.186-45-45s20.186-45 45-45 45 20.186 45 45-20.186 45-45 45z" fill="#ffd9b3"/></g></g><g><g><g><g><path d="m211 391h-150v-15c0-41.353 33.633-75 75-75s75 33.647 75 75z" fill="#57d9ad"/></g></g></g></g><path d="m181 256c0-24.814-20.186-45-45-45v90c24.814 0 45-20.186 45-45z" fill="#fb9"/><path d="m211 391v-15c0-41.353-33.633-75-75-75v90z" fill="#26bfa6"/></g><g><g><g><path d="m256 301c-24.814 0-45-20.186-45-45s20.186-45 45-45 45 20.186 45 45-20.186 45-45 45z" fill="#c86e59"/></g></g><g><g><g><g><path d="m331 391h-150v-15c0-41.353 33.633-75 75-75s75 33.647 75 75z" fill="#fabe2c"/></g></g></g></g><path d="m301 256c0-24.814-20.186-45-45-45v90c24.814 0 45-20.186 45-45z" fill="#a34f3e"/><path d="m331 391v-15c0-41.353-33.633-75-75-75v90z" fill="#ff9100"/></g><g><path d="m512 512h-512v-151h512z" fill="#fff5f5"/></g><path d="m256 361h256v151h-256z" fill="#efe2dd"/></g></svg>