<svg id="Capa_1" enable-background="new 0 0 512 512" height="512" viewBox="0 0 512 512" width="512" xmlns="http://www.w3.org/2000/svg"><g><g><path d="m90 196h-30v-75h60v30h-30z" fill="#fed843"/></g><g><path d="m452 196h-30v-75h60v30h-30z" fill="#fabe2c"/></g><g><path d="m271 76h-30v-76h60v30h-30z" fill="#fed843"/></g><g id="Academy_1_"><g><path d="m0 252.4v259.6h151c16.569 0 30-13.431 30-30v-229.6l-91-30z" fill="#efe2dd"/><path d="m181 181v71.4h-181l35.7-71.4z" fill="#ff641a"/></g><g><path d="m331 252.4v229.6c0 16.569 13.431 30 30 30h151v-259.6l-90-30z" fill="#e1d3ce"/><path d="m512 252.4h-181v-71.4h145.3z" fill="#f03800"/></g><g><path d="m361 132.4v183.6l-105 30-105-30v-183.6l105-30z" fill="#ffd9b3"/></g><g><path d="m45 301h60v30h-60z" fill="#57d9ad"/></g><g><path d="m45 361h60v30h-60z" fill="#57d9ad"/></g><g><path d="m406 301h61v30h-61z" fill="#26bfa6"/></g><g><path d="m406 361h61v30h-61z" fill="#26bfa6"/></g><g><path d="m45 421h60v30h-60z" fill="#57d9ad"/></g><g><path d="m406 421h61v30h-61z" fill="#26bfa6"/></g></g><path d="m361 316v-183.6l-105-30v243.6z" fill="#fb9"/><path d="m301 0h-45v76h15v-46h30z" fill="#fabe2c"/><path d="m361 132.4h-210l35.7-71.4h138.6z" fill="#ff641a"/><path d="m256 132.4h105l-35.7-71.4h-69.3z" fill="#f03800"/><path d="m361 316v196h-60c-16.569 0-30-13.431-30-30v-46c0-8.401-6.599-15-15-15s-15 6.599-15 15v46c0 16.569-13.431 30-30 30h-60v-196z" fill="#fff5f5"/><path d="m271 436v46c0 16.567 13.431 30 30 30h60v-196h-105v105c8.401 0 15 6.599 15 15z" fill="#efe2dd"/><g><path d="m301 512h-90v-76c0-24.814 20.186-45 45-45s45 20.186 45 45z" fill="#5c6366"/></g><path d="m301 512v-76c0-24.814-20.186-45-45-45v121z" fill="#41474d"/><g><path d="m256 271c-24.814 0-45-20.186-45-45s20.186-45 45-45 45 20.186 45 45-20.186 45-45 45z" fill="#ff641a"/></g><path d="m301 226c0-24.814-20.186-45-45-45v90c24.814 0 45-20.186 45-45z" fill="#f03800"/><circle cx="256" cy="226" fill="#fff5f5" r="15"/><path d="m271 226c0-8.271-6.729-15-15-15v30c8.271 0 15-6.729 15-15z" fill="#efe2dd"/></g></svg>