<svg id="Capa_1" enable-background="new 0 0 512.7 512.7" height="512" viewBox="0 0 512.7 512.7" width="512" xmlns="http://www.w3.org/2000/svg"><g><path d="m391 99.049v413.301h-391v-512h292.301l30 68.699z" fill="#fff5f5"/><path d="m292.301.35h-96.301v512h195v-413.301l-68.699-30z" fill="#efe2dd"/><g><g id="Examination_2_"><g><path d="m181 361.35h90v30h-90z" fill="#5c6366"/></g><g><path d="m181 301.35h90v30h-90z" fill="#5c6366"/></g><g><path d="m181 241.35h150v30h-150z" fill="#5c6366"/></g><g><path d="m181 181.35h150v30h-150z" fill="#5c6366"/></g><g><path d="m91 217.561-40.605-40.606 21.21-21.211 19.395 19.395 34.395-34.395 21.21 21.211z" fill="#57d9ad"/></g><g><path d="m151 331.35h-90v-90h90z" fill="#e1d3ce"/></g><g><path d="m151 451.35h-90v-90h90z" fill="#e1d3ce"/></g></g><g><g><g><path d="m391 99.049h-98.699v-98.699z" fill="#e1d3ce"/></g></g></g><path d="m390.099 383.85-15.599 30.599-65.7 36.901h-127.8v-30h118.801l-5.4-47.701 15.599-30.599z" fill="#5c6366"/><g><g><g><path d="m492.4 184.792-102.601 200.399-71.423 8.666-8.376-49.765 102.599-200.102 69.647-12.502z" fill="#26bfa6"/></g></g><path d="m507.744 156.108-15.344 28.684-79.801-40.801 15.045-28.682c11.4-22.202 38.401-30.901 60.601-19.801 21.899 11.4 30.899 38.701 19.499 60.6z" fill="#ff9100"/></g><g fill="#41474d"><path d="m294.401 373.649 5.4 47.701h-103.801v30h112.8l65.7-36.901 15.599-30.599-80.099-40.8z"/><path d="m196 361.35h75v30h-75z"/><path d="m196 301.35h75v30h-75z"/><path d="m196 241.35h135v30h-135z"/><path d="m196 181.35h135v30h-135z"/></g></g></g></svg>