<svg id="Capa_1" enable-background="new 0 0 512.169 512.169" height="512" viewBox="0 0 512.169 512.169" width="512" xmlns="http://www.w3.org/2000/svg"><g><g><path d="m512 272.085h-390v-90h45c19.57 0 36.24-12.539 42.422-30h-87.422v-152h390z" fill="#5c6366"/></g><path d="m317 .085h195v272h-195z" fill="#41474d"/><g id="Pedagogy_1_"><g><path d="m45 122.085c-24.814 0-45-20.186-45-45s20.186-45 45-45 45 20.186 45 45-20.186 45-45 45z" fill="#ffd9b3"/></g><g><circle cx="197" cy="347.085" fill="#5c6366" r="45"/><circle cx="317" cy="347.085" fill="#5c6366" r="45"/><circle cx="437" cy="347.085" fill="#41474d" r="45"/><path d="m437 392.085c-24.626 0-46.32 12.081-60 30.458-13.68-18.376-35.374-30.458-60-30.458s-46.32 12.081-60 30.458c-13.68-18.376-35.374-30.458-60-30.458-41.367 0-75 33.647-75 75v45c20.437 0 399.316 0 390 0v-45c0-41.353-33.633-75-75-75z" fill="#57d9ad"/></g><g><path d="m182 62.085h270v30h-270z" fill="#fff5f5"/></g><g><path d="m272 122.085h180v30h-180z" fill="#fff5f5"/></g><g><path d="m272 182.085h180v30h-180z" fill="#fff5f5"/></g></g><path d="m512 512.084v-45c0-41.353-33.633-75-75-75-24.626 0-46.32 12.081-60 30.458-13.68-18.376-35.374-30.458-60-30.458v120c99.979 0 199.838 0 195 0z" fill="#26bfa6"/><path d="m362 347.085c0-24.814-20.186-45-45-45v90c24.814 0 45-20.186 45-45z" fill="#41474d"/><g fill="#efe2dd"><path d="m317 62.085h135v30h-135z"/><path d="m317 122.085h135v30h-135z"/><path d="m317 182.085h135v30h-135z"/></g><path d="m90 77.085c0-24.814-20.186-45-45-45v90c24.814 0 45-20.186 45-45z" fill="#fb9"/><g><path d="m90 512.084h-90v-345c0-24.814 20.186-45 45-45h197v15c0 41.353-33.633 75-75 75h-77z" fill="#ff641a"/></g><path d="m90 512.084v-300h77c41.367 0 75-33.647 75-75v-15h-197v390z" fill="#f03800"/></g></svg>