<svg id="Capa_1" enable-background="new 0 0 512 512" height="512" viewBox="0 0 512 512" width="512" xmlns="http://www.w3.org/2000/svg"><g><path d="m374.012 452.4-17.752-54.634v-10.018l6.182-4.503 44.558-32.376 50.74 36.868v10.019l-17.752 54.644z" fill="#5c6366"/><path d="m439.988 452.4 17.752-54.644v-10.019l-50.74-36.868v101.531z" fill="#41474d"/><path d="m512 407c0 34.86-17.08 65.81-43.31 84.91l-35.69-14.91-3.92-39.6h.01l13.65-42.01 23.26-31.39 40.86 10.56c3.34 10.22 5.14 21.12 5.14 32.44z" fill="#e1d3ce"/><path d="m332 407c0-31.8 20.099-60.3 49.799-70.501l10.201-3.3v-61.199l-48.75-15 48.75-15v-242h-120l-14.703 30-15.297-30h-90l-15 30-15-30h-122v242l50.75 15-50.75 15v240h122l15.111-30 14.889 30h90l15.408-30 14.592 30h135v-30c-41.4 0-75-33.6-75-75z" fill="#57d9ad"/><path d="m332 407c0-31.8 20.099-60.3 49.799-70.501l10.201-3.3v-61.199l-48.75-15 48.75-15v-242h-120l-14.703 30-15.297-30h-45v512h45l15.408-30 14.592 30h135v-30c-41.4 0-75-33.6-75-75z" fill="#26bfa6"/><g id="Football_3_"><g><path d="m407 302 20 34-20 33.41-35.74 25.97v.01l-31.983 10.61-32.137-31.44c13.69-42.07 53.28-72.56 99.86-72.56z" fill="#fff5f5"/><path d="m468.69 491.91c-17.33 12.63-38.65 20.09-61.69 20.09s-44.36-7.46-61.69-20.09l5.69-42.91 33.92-11.6h44.16z" fill="#fff5f5"/><path d="m429.08 437.4h-22.08v74.6c23.04 0 44.36-7.46 61.69-20.09z" fill="#efe2dd"/></g></g><g><g id="Football_1_" fill="#fff5f5"><path d="m197 362c-41.4 0-75 33.6-75 75v75h30v-60h90v60h30v-75c0-41.4-33.6-75-75-75zm0 30c19.609 0 36.072 12.541 42.255 30h-84.51c6.183-17.459 22.646-30 42.255-30z"/><path d="m242 0v60h-90v-60h-30v75c0 41.4 33.6 75 75 75s75-33.6 75-75v-75zm-45 120c-19.609 0-36.072-12.543-42.255-30h84.51c-6.183 17.457-22.646 30-42.255 30z"/><path d="m392 242h-121.516c-6.969-34.191-37.255-60-73.484-60s-66.515 25.809-73.484 60h-123.516v30h123.516c6.969 34.191 37.255 60 73.484 60s66.515-25.809 73.484-60h121.516zm-195-30c19.53 0 36.024 12.578 42.237 30h-84.474c6.213-17.422 22.707-30 42.237-30zm0 90c-19.53 0-36.024-12.578-42.237-30h84.474c-6.213 17.422-22.707 30-42.237 30z"/></g><g fill="#efe2dd"><path d="m239.255 422h-42.255v30h45v60h30v-75c0-41.4-33.6-75-75-75v30c19.609 0 36.072 12.541 42.255 30z"/><path d="m242 60h-45v30h42.255c-6.183 17.457-22.646 30-42.255 30v30c41.4 0 75-33.6 75-75v-75h-30z"/><path d="m239.237 242h-42.237v30h42.237c-6.213 17.422-22.707 30-42.237 30v30c36.229 0 66.515-25.809 73.484-60h121.516v-30h-121.516c-6.969-34.191-37.255-60-73.484-60v30c19.53 0 36.024 12.578 42.237 30z"/></g></g><g fill="#efe2dd"><path d="m442.74 395.39v-.01l-35.74-25.97v-67.41c46.58 0 86.17 30.49 99.86 72.56z"/><path d="m384.92 437.4-39.61 54.51c-26.23-19.1-43.31-50.05-43.31-84.91 0-11.32 1.8-22.22 5.14-32.44l64.12 20.83 13.65 42.01z"/></g></g></svg>