<svg id="Capa_1" enable-background="new 0 0 512 512" height="512" viewBox="0 0 512 512" width="512" xmlns="http://www.w3.org/2000/svg"><g><path d="m211 271 30 84.137-30 95.863h-60l-30-95.863 30-84.137z" fill="#57d9ad"/><path d="m211 271h60v180h-60z" fill="#ff641a"/><path d="m299.318 266.147h60v180h-60z" fill="#26bfa6" transform="matrix(.943 -.333 .333 .943 -99.802 129.99)"/><path d="m256 271h15v180h-15z" fill="#f03800"/><path d="m121 61 30 82.5-30 82.5h-60v-165z" fill="#ff641a"/><path d="m391 61 30 82.5-30 82.5h-60v-165z" fill="#5c6366"/><path d="m121 61h60v165h-60z" fill="#57d9ad"/><g><g><g><path d="m391 61h60v165h-60z" fill="#26bfa6"/></g></g></g><g><path d="m0 0v421c0 16.569 13.431 30 30 30h452c16.569 0 30-13.431 30-30v-421zm482 30v181h-452v-181zm-452 391v-180h452v180z" fill="#fabe2c"/></g><g><path d="m91 271h60v180h-60z" fill="#5c6366"/></g><path d="m256 30h226v181h-226v30h226v180h-226v30h226c16.569 0 30-13.433 30-30v-421h-256z" fill="#ff9100"/><g id="Bookshelf_1_"><g><path d="m512 512h-512v-91h512z" fill="#fabe2c"/></g></g><path d="m256 421h256v91h-256z" fill="#ff9100"/></g></svg>