<svg id="Capa_1" enable-background="new 0 0 512 512" height="512" viewBox="0 0 512 512" width="512" xmlns="http://www.w3.org/2000/svg"><g><path d="m512 63.6-31.901 448.4h-448.198l-31.901-448.4 74.2-18.6 181.8 30 181.8-30z" fill="#5c6366"/><path d="m480.099 512 31.901-448.4-74.2-18.6-181.8 30v437z" fill="#41474d"/><path d="m295.901 369.899v.3c-12.9 3.301-26.1 4.801-39.901 4.801s-27.001-1.5-39.901-4.801v-.3l-17.912-84.899 42.813-90 15-30 15 30 42.813 90z" fill="#ff641a"/><path d="m295.901 370.199v-.3l17.913-84.899-42.814-90-15-30v210c13.801 0 27.001-1.5 39.901-4.801z" fill="#f03800"/><path d="m307 153.9-36 41.1h-30l-36-41.1 51-113.1z" fill="#f03800"/><path d="m271 195 36-41.1-51-113.1v154.2z" fill="#cd0000"/><g><path d="m352.301 0-18.151 80.4-78.15 20.4-83.309-25.8-12.992-75z" fill="#fff5f5"/></g><path d="m256 100.8 78.151-20.4 18.15-80.4h-96.301z" fill="#efe2dd"/><g id="School_Uniform_2_"><g><path d="m331 420h90v30h-90z" fill="#efe2dd"/></g></g><path d="m383.8 31.5-37.8 163.5-39-41.1-51-53.1 96.301-100.8z" fill="#e1d3ce"/><path d="m256 100.8-51 53.1-39 41.1-37.8-163.5 31.499-31.5z" fill="#efe2dd"/><path d="m241 195-24.901 174.899c-68.2-15.628-124.195-75.734-129.899-152.999l-12-171.9 54-13.5 37.8 163.5 39-41.1z" fill="#fff5f5"/><path d="m437.8 45-12.001 171.899c-5.7 75.3-59.399 136.5-129.899 152.999l-24.9-174.898 36-41.1 39 41.1 37.8-163.5z" fill="#efe2dd"/></g></svg>