<svg id="Capa_1" enable-background="new 0 0 512 512" height="512" viewBox="0 0 512 512" width="512" xmlns="http://www.w3.org/2000/svg"><g><g><path d="m331 293.196v68.804h-62.432l-136.494 150h348.926v-383.804zm90 158.804h-153.252l153.252-168.604z" fill="#fed843"/></g><path d="m331 293.196v68.804l9.719 9.719 80.281-88.323v168.604l60 60v-383.804z" fill="#fabe2c"/><g><path d="m331 152h-270c-16.569 0-30-13.431-30-30v-122h330v122c0 16.569-13.431 30-30 30z" fill="#5c6366"/></g><path d="m196 152h135c16.569 0 30-13.433 30-30v-122h-165z" fill="#41474d"/><g><path d="m361 392h-330v-270h60c16.569 0 30 13.431 30 30v150h150v-150c0-16.569 13.431-30 30-30h60z" fill="#57d9ad"/></g><path d="m271 152v150h-75v90h165v-270h-60c-16.569 0-30 13.431-30 30z" fill="#26bfa6"/><g id="Mathematics_1_"><g><g><path d="m106 137h180v180h-180z" fill="#5c6366"/></g></g><g><path d="m211 62h30v30h-30z" fill="#26bfa6"/></g><g><path d="m271 62h30v30h-30z" fill="#26bfa6"/></g><g><path d="m151 62h30v30h-30z" fill="#57d9ad"/></g></g><path d="m196 137h90v180h-90z" fill="#41474d"/><path d="m91 122v210h210v-210zm180 60h-30v-30h30zm-60 120h-30v-30h30zm0-60h-30v-30h30zm-60 0h-30v-30h30zm30-60v-30h30v30zm-30-30v30h-30v-30zm-30 120h30v30h-30zm120 30v-90h30v90z" fill="#fff5f5"/><path d="m196 152h15v30h-15v30h15v30h-15v30h15v30h-15v30h105v-210h-105zm45 0h30v30h-30zm0 60h30v90h-30z" fill="#efe2dd"/></g></svg>