<svg id="Capa_1" enable-background="new 0 0 512 512" height="512" viewBox="0 0 512 512" width="512" xmlns="http://www.w3.org/2000/svg"><g><g><g id="Biology_4_"><g><g><path d="m114.906 31h102.188v30h-102.188z" fill="#fed843"/></g></g><g><g><path d="m113.793 181h104.414v30h-104.414z" fill="#fed843"/></g></g><g><g><path d="m106 241h120v30h-120z" fill="#fed843"/></g></g><g><g><path d="m117.426 301h97.148v30h-97.148z" fill="#fed843"/></g></g><g fill="#fabe2c"><path d="m166 301h48.574v30h-48.574z"/><path d="m166 241h60v30h-60z"/><path d="m166 181h52.207v30h-52.207z"/></g><g><g><path d="m114.115 451h103.77v30h-103.77z" fill="#fed843"/></g></g></g><g><g><g><path d="m241 256c0 67.49-35.36 109.39-66.53 146.35-2.87 3.4-5.7 6.77-8.47 10.12-24.92 30.12-45 58.8-45 99.53h-30c0-56.24 30.76-93.71 60.53-128.98 4.9-5.82 9.77-11.58 14.47-17.39 24.63-30.43 45-62.18 45-109.63 0-60.41-20.67-94.21-45-122.08-6.14-7.04-12.51-13.7-18.84-20.32-27.6-28.88-56.16-59.75-56.16-113.6h30c0 40.3 19.62 63.21 45 89.85.95 1 1.9 2 2.87 3.01 33.81 35.38 72.13 75.45 72.13 163.14z" fill="#57d9ad"/></g></g></g><path d="m241 256c0 67.49-35.36 109.39-66.53 146.35-2.87 3.4-5.7 6.77-8.47 10.12v-46.84c24.63-30.43 45-62.18 45-109.63 0-60.41-20.67-94.21-45-122.08v-44.07c.95 1 1.9 2 2.87 3.01 33.81 35.38 72.13 75.45 72.13 163.14z" fill="#26bfa6"/><path d="m166 451h51.885v30h-51.885z" fill="#fabe2c"/><path d="m166 31h51.094v30h-51.094z" fill="#fabe2c"/><g><path d="m180.47 383.02c29.77 35.27 60.53 72.74 60.53 128.98h-30c0-40.73-20.08-69.41-45-99.53-2.77-3.35-5.6-6.72-8.47-10.12-31.17-36.96-66.53-78.86-66.53-146.35 0-87.69 38.32-127.76 72.13-163.14.97-1.01 1.92-2.01 2.87-3.01 25.38-26.64 45-49.55 45-89.85h30c0 53.85-28.56 84.72-56.16 113.6-6.33 6.62-12.7 13.28-18.84 20.32-24.33 27.87-45 61.67-45 122.08 0 47.45 20.37 79.2 45 109.63 4.7 5.81 9.57 11.57 14.47 17.39z" fill="#ff641a"/></g></g><path d="m241 0c0 53.85-28.56 84.72-56.16 113.6-6.33 6.62-12.7 13.28-18.84 20.32v-44.07c25.38-26.64 45-49.55 45-89.85z" fill="#f03800"/><path d="m241 512h-30c0-40.73-20.08-69.41-45-99.53v-46.84c4.7 5.81 9.57 11.57 14.47 17.39 29.77 35.27 60.53 72.74 60.53 128.98z" fill="#f03800"/><g id="Biology_2_"><g><path d="m294.906 31h102.188v30h-102.188z" fill="#fed843"/></g><g><path d="m293.793 181h104.414v30h-104.414z" fill="#fed843"/></g><g><path d="m286 241h120v30h-120z" fill="#fed843"/></g><g><path d="m297.426 301h97.148v30h-97.148z" fill="#fed843"/></g><g fill="#fabe2c"><path d="m346 301h48.574v30h-48.574z"/><path d="m346 241h60v30h-60z"/><path d="m346 181h52.207v30h-52.207z"/></g><g><path d="m294.115 451h103.77v30h-103.77z" fill="#fed843"/></g></g><g><path d="m421 256c0 67.49-35.36 109.39-66.53 146.35-2.87 3.4-5.7 6.77-8.47 10.12-24.92 30.12-45 58.8-45 99.53h-30c0-56.24 30.76-93.71 60.53-128.98 4.9-5.82 9.77-11.58 14.47-17.39 24.63-30.43 45-62.18 45-109.63 0-60.41-20.67-94.21-45-122.08-6.14-7.04-12.51-13.7-18.84-20.32-27.6-28.88-56.16-59.75-56.16-113.6h30c0 40.3 19.62 63.21 45 89.85.95 1 1.9 2 2.87 3.01 33.81 35.38 72.13 75.45 72.13 163.14z" fill="#57d9ad"/></g><path d="m421 256c0 67.49-35.36 109.39-66.53 146.35-2.87 3.4-5.7 6.77-8.47 10.12v-46.84c24.63-30.43 45-62.18 45-109.63 0-60.41-20.67-94.21-45-122.08v-44.07c.95 1 1.9 2 2.87 3.01 33.81 35.38 72.13 75.45 72.13 163.14z" fill="#26bfa6"/><path d="m346 451h51.885v30h-51.885z" fill="#fabe2c"/><path d="m346 31h51.094v30h-51.094z" fill="#fabe2c"/><g><path d="m360.47 383.02c29.77 35.27 60.53 72.74 60.53 128.98h-30c0-40.73-20.08-69.41-45-99.53-2.77-3.35-5.6-6.72-8.47-10.12-31.17-36.96-66.53-78.86-66.53-146.35 0-87.69 38.32-127.76 72.13-163.14.97-1.01 1.92-2.01 2.87-3.01 25.38-26.64 45-49.55 45-89.85h30c0 53.85-28.56 84.72-56.16 113.6-6.33 6.62-12.7 13.28-18.84 20.32-24.33 27.87-45 61.67-45 122.08 0 47.45 20.37 79.2 45 109.63 4.7 5.81 9.57 11.57 14.47 17.39z" fill="#ff641a"/></g><g fill="#f03800"><path d="m421 0c0 53.85-28.56 84.72-56.16 113.6-6.33 6.62-12.7 13.28-18.84 20.32v-44.07c25.38-26.64 45-49.55 45-89.85z"/><path d="m421 512h-30c0-40.73-20.08-69.41-45-99.53v-46.84c4.7 5.81 9.57 11.57 14.47 17.39 29.77 35.27 60.53 72.74 60.53 128.98z"/></g></g></svg>