<svg id="Capa_1" enable-background="new 0 0 512 512" height="512" viewBox="0 0 512 512" width="512" xmlns="http://www.w3.org/2000/svg"><g><g><path d="m213.388 315h30v122h-30z" fill="#efe2dd"/></g><path d="m228.388 315h15v122h-15z" fill="#e1d3ce"/><g><path d="m228.388 390c-59.766 0-116.25-23.379-159.082-65.845l-10.694-10.605 318.311-313.55 10.635 10.693c42.451 42.803 65.83 94.541 65.83 154.307 0 124.072-100.928 225-225 225zm-126.856-76.934c35.567 30.367 80.069 46.934 126.856 46.934 107.52 0 195-87.48 195-195 0-46.802-16.553-91.304-46.934-126.855l-21.182 21.167-232.558 232.587z" fill="#fff5f5"/></g><path d="m376.923 0-148.535 143.774v42.438l126.884-126.9 21.182-21.167c30.381 35.552 46.934 80.054 46.934 126.855 0 107.52-87.48 195-195 195v30c124.072 0 225-100.928 225-225 0-59.766-23.379-111.504-65.83-154.307z" fill="#efe2dd"/><g><g><g><path d="m325.287 298.2c-26.699 19.799-59.399 31.199-94.799 31.8l-110.7-95.7-52.8-103.801c14.101-66 67.8-117.599 135-128.101l116.4 72.602z" fill="#bcf7fc"/></g></g></g><path d="m228.388 18.865v309.318l2.1 1.816c35.4-.601 68.101-12.001 94.799-31.8l-6.899-223.199z" fill="#9df"/><path d="m393.388 165c0 54.899-27.001 103.5-68.101 133.2-12.299-11.1-27.299-30-37.8-58.801-20.698-56.4 21.301-77.999.901-134.399-.901-2.401-1.8-4.501-2.701-6.601-14.7-32.999-38.099-35.099-57.299-50.7-10.8-8.399-20.4-21.299-26.4-45.3 8.401-1.8 17.401-2.399 26.4-2.399 43.801 0 85.201 17.1 116.7 47.999 31.199 31.5 48.3 73.2 48.3 117.001z" fill="#57d9ad"/><path d="m230.488 330h-2.1c-43.801 0-85.201-17.1-116.7-48.001-31.199-31.5-48.3-73.2-48.3-116.999 0-11.7 1.199-23.401 3.6-34.501 49.2 44.7 118.2 27.9 138.3 58.801 21.901 33.9-8.399 31.8 4.501 105 4.799 13.5 11.4 24.6 18.6 33.3.9.9 1.498 1.799 2.099 2.4z" fill="#57d9ad"/><path d="m393.388 165c0 54.899-27.001 103.5-68.101 133.2-12.299-11.1-27.299-30-37.8-58.801-20.698-56.4 21.301-77.999.901-134.399-.901-2.401-1.8-4.501-2.701-6.601-14.7-32.999-38.099-35.099-57.299-50.7v-47.699c43.801 0 85.201 17.1 116.7 47.999 31.199 31.5 48.3 73.2 48.3 117.001z" fill="#26bfa6"/><path d="m230.488 330h-2.1v-2.401c.901.901 1.499 1.8 2.1 2.401z" fill="#26bfa6"/><g id="Geography_4_"><g><g><path d="m342.646 512h-228.516l45-90h138.516z" fill="#a34f3e"/></g></g></g><path d="m228.388 512h114.258l-45-90h-69.258z" fill="#873f2e"/></g></svg>