<svg id="Capa_1" enable-background="new 0 0 512 512" height="512" viewBox="0 0 512 512" width="512" xmlns="http://www.w3.org/2000/svg"><g><g><path d="m332.657 123.697c-36.899-36.599-86.4-56.699-137.699-56.999-3.9 0-8.101 0-12.001.3-55.499 3.3-107.399 30.599-141.899 74.7-53.101 67.2-54.901 165.899-4.2 234.6 37.2 50.7 95.7 80.4 157.8 80.4h.3c35.099 0 58.2-18.3 68.399-44.401 10.501-26.699 4.501-56.1-15.599-76.199-6-6-6-15.601 0-21.301 5.7-5.7 15.599-5.7 20.999 0 20.402 20.101 49.801 26.4 76.802 15.601 26.1-10.199 42.9-33.6 43.799-61.199 2.1-54-18.6-107.101-56.701-145.502z" fill="#fed843"/></g><path d="m389.358 269.198c-.899 27.599-17.699 51-43.799 61.199-27.001 10.8-56.4 4.501-76.802-15.601-5.4-5.7-15.298-5.7-20.999 0-6 5.7-6 15.3 0 21.301 20.099 20.099 26.1 49.501 15.599 76.199-10.199 26.102-33.3 44.401-68.399 44.401v-390c51.299.3 100.8 20.4 137.699 56.999 38.101 38.402 58.801 91.503 56.701 145.502z" fill="#fabe2c"/><g><path d="m512 456.698h-90v-135c0-1.655 1.23-165 45-165s45 163.345 45 165z" fill="#ff641a"/></g><path d="m512 456.698v-135c0-1.655-1.23-165-45-165v300z" fill="#f03800"/><g id="Art_2_"><g><g><path d="m131.025 370.302c-11.514 0-23.027-4.38-31.816-13.125-17.549-17.563-17.549-46.113 0-63.662 17.52-17.52 46.055-17.534 63.633-.015 17.549 17.563 17.549 46.113 0 63.662v.015c-8.79 8.745-20.303 13.125-31.817 13.125z" fill="#57d9ad"/></g><g><path d="m258.291 243.021c-11.514 0-23.027-4.365-31.816-13.125-17.549-17.563-17.549-46.113 0-63.662 17.52-17.52 46.055-17.505 63.633-.015 17.549 17.563 17.549 46.113 0 63.662v.015c-8.79 8.76-20.304 13.125-31.817 13.125z" fill="#2682ff"/></g><g><path d="m131.025 243.021c-11.514 0-23.027-4.365-31.816-13.125-17.549-17.563-17.549-46.113 0-63.662 17.52-17.52 46.055-17.505 63.633-.015v.015c17.549 17.549 17.549 46.099 0 63.647-8.76 8.761-20.303 13.14-31.817 13.14z" fill="#ff641a"/></g></g></g><g><path d="m467 186.698c-24.814 0-45-20.186-45-45 0-25.038 37.65-75.416 45-86.396 8.688 12.978 45 61.652 45 86.396 0 24.815-20.186 45-45 45z" fill="#5c6366"/></g><path d="m512 141.698c0-24.745-36.312-73.418-45-86.396v131.396c24.814 0 45-20.185 45-45z" fill="#41474d"/></g></svg>