<svg id="Capa_1" enable-background="new 0 0 512 512" height="512" viewBox="0 0 512 512" width="512" xmlns="http://www.w3.org/2000/svg"><g><g><g><path d="m62.045 512h-62.045v-124.095c0-48.548 40.357-87.905 88.905-87.905h16.099l-13.036 182.142c-1.123 15.697-14.186 29.858-29.923 29.858z" fill="#5c6366"/></g></g><g><path d="m512 512h-62.045c-15.738 0-28.8-14.161-29.923-29.858l-13.036-182.142h16.113c48.541 0 88.891 39.35 88.891 87.891z" fill="#41474d"/></g><g><path d="m331 90h-30v-15c0-24.814-20.186-45-45-45s-45 20.186-45 45v15h-30v-15c0-41.353 33.633-75 75-75s75 33.647 75 75z" fill="#5c6366"/></g><path d="m301 75v15h30v-15c0-41.353-33.633-75-75-75v30c24.814 0 45 20.186 45 45z" fill="#41474d"/><g><path d="m452.113 512h-392.226l20.332-288.333c4.834-67.822 47.051-125.742 110.185-151.187 42.949-16.611 88.418-16.538 131.016-.073 61.877 24.929 105.521 83.392 110.361 151.23z" fill="#ff641a"/></g><path d="m256 512h196.113l-20.332-288.362c-4.841-67.839-48.484-126.302-110.361-151.23-21.313-8.238-43.345-12.369-65.42-12.363z" fill="#f03800"/><g id="Backpack_1_"><g><path d="m387.66 450h-263.32l10.693-150h241.934z" fill="#fff5f5"/></g><g><path d="m374.828 270h-237.656l3.018-42.173c4.306-60.469 55.195-107.827 115.81-107.827s111.504 47.358 115.811 107.827z" fill="#fff5f5"/></g></g><path d="m256 450h131.66l-10.693-150h-120.967z" fill="#efe2dd"/><path d="m374.828 270-3.018-42.173c-4.306-60.469-55.195-107.827-115.81-107.827v150z" fill="#efe2dd"/><g><path d="m241 180h30v30h-30z" fill="#5c6366"/></g><path d="m256 180h15v30h-15z" fill="#41474d"/></g></svg>