<svg id="Capa_1" enable-background="new 0 0 512 512" height="512" viewBox="0 0 512 512" width="512" xmlns="http://www.w3.org/2000/svg"><g><g><path d="m301 347c0 1.8 0 3.3-.3 4.799-2.1 33.9-26.999 62.1-59.7 68.701-4.799.899-9.901 1.5-15 1.5h-30c-41.4 0-75-33.6-75-75h-30v150h300v-150z" fill="#5c6366"/></g><path d="m391 347v150h-150v-76.5c32.701-6.601 57.599-34.801 59.7-68.701.3-1.5.3-2.999.3-4.799z" fill="#41474d"/><g id="Microscope_2_"><g><path d="m131.693 295.408-27.539-11.895c8.057-18.604 19.365-35.259 33.662-49.541l65.156-65.156 21.211 21.211-65.156 65.156c-11.601 11.602-20.8 25.137-27.334 40.225z" fill="#5c6366"/></g><g><path d="m178.598 123.113-59.598-59.597 63.516-63.516 59.598 59.598z" fill="#5c6366"/></g><g><path d="m348.08 292.962-63.457-63.911 63.457-63.413 63.867 63.413z" fill="#41474d"/></g><g><path d="m106 362c-24.814 0-45-20.186-45-45s20.186-45 45-45 45 20.186 45 45-20.186 45-45 45z" fill="#efe2dd"/></g></g><g><g><g><path d="m271 332h180v30h-180z" fill="#26bfa6"/></g></g></g><g><g><g><path d="m61 482h360v30h-360z" fill="#efe2dd"/></g></g></g><g><path d="m284.506 271.604-148.418-148.403 106.113-106.113 148.418 148.418z" fill="#efe2dd"/></g><g fill="#e1d3ce"><path d="m241 228.102 43.506 43.502 106.113-106.098-148.418-148.418-1.201 1.201z"/><path d="m241 482h180v30h-180z"/></g></g></svg>